<svg xmlns="http://www.w3.org/2000/svg" xmlns:xlink="http://www.w3.org/1999/xlink" width="40" height="40" viewBox="0 0 40 40">
  <defs>
    <clipPath id="clip-path">
      <rect id="Rectangle_4602" data-name="Rectangle 4602" width="40" height="40" transform="translate(128 1853)" fill="#fff"/>
    </clipPath>
  </defs>
  <g id="Mask_Group_15" data-name="Mask Group 15" transform="translate(-128 -1853)" clip-path="url(#clip-path)">
    <g id="_002-reception" data-name="002-reception" transform="translate(127.355 1852.355)">
      <path id="Path_4965" data-name="Path 4965" d="M1.29,27.1h1.29V40a.645.645,0,0,0,.645.645h32.9A.645.645,0,0,0,36.774,40V27.1h1.29a.645.645,0,0,0,.645-.645V23.871a.645.645,0,0,0-.645-.645H31.613v-1.29a.645.645,0,0,0-.645-.645H29.032V19.355h3.226a1.29,1.29,0,0,0,1.29-1.29V11.613a1.29,1.29,0,0,0-1.29-1.29H24.516a1.29,1.29,0,0,0-1.29,1.29v6.452a1.29,1.29,0,0,0,1.29,1.29h3.226V21.29H25.806a.645.645,0,0,0-.645.645v1.29H16.129V20.645a6.51,6.51,0,0,0-3.51-5.923,3.871,3.871,0,1,0-4.594,0,6.51,6.51,0,0,0-3.51,5.923v2.581H1.29a.645.645,0,0,0-.645.645v2.581a.645.645,0,0,0,.645.645ZM35.484,39.355H3.871V27.1H35.484ZM24.516,18.065V11.613h7.742v6.452Zm1.935,4.516h3.871v.645H26.452ZM7.742,11.613a2.581,2.581,0,1,1,2.581,2.581,2.581,2.581,0,0,1-2.581-2.581Zm3.174,8.265-.594.9-.594-.9.594-2.381Zm-5.11.768a5.027,5.027,0,0,1,3.665-5.065L8.387,19.845a.645.645,0,0,0,.09.51l1.29,1.935a.645.645,0,0,0,1.071,0l1.29-1.935a.645.645,0,0,0,.09-.51l-1.065-4.265a5.054,5.054,0,0,1,3.665,5.065v2.581H5.806ZM1.935,24.516H37.419v1.29H1.935Z" fill="#fff"/>
      <path id="Path_4966" data-name="Path 4966" d="M9.032,36.129H30.968a.645.645,0,0,0,.645-.645V30.968a.645.645,0,0,0-.645-.645H9.032a.645.645,0,0,0-.645.645v4.516A.645.645,0,0,0,9.032,36.129Zm.645-4.516H30.323v3.226H9.677Z" fill="#fff"/>
      <path id="Path_4967" data-name="Path 4967" d="M13.226,32.258a.968.968,0,1,0,.968.968A.968.968,0,0,0,13.226,32.258Z" fill="#fff"/>
      <path id="Path_4968" data-name="Path 4968" d="M17.742,32.258a.968.968,0,1,0,.968.968A.968.968,0,0,0,17.742,32.258Z" fill="#fff"/>
      <path id="Path_4969" data-name="Path 4969" d="M22.258,32.258a.968.968,0,1,0,.968.968A.968.968,0,0,0,22.258,32.258Z" fill="#fff"/>
      <path id="Path_4970" data-name="Path 4970" d="M26.774,32.258a.968.968,0,1,0,.968.968A.968.968,0,0,0,26.774,32.258Z" fill="#fff"/>
    </g>
  </g>
</svg>
