<svg xmlns="http://www.w3.org/2000/svg" width="56" height="50.199" viewBox="0 0 56 50.199">
  <path id="_005-cctv_camera" data-name="005-cctv camera" d="M57,6.916H7a3,3,0,0,0-3,3V23.527a3,3,0,0,0,2.547,2.954v5.106a25.525,25.525,0,0,0,14.99,23.223c16.387,7.665,36.137-4.727,36-23.223V26.472A3,3,0,0,0,60,23.527V9.916a3,3,0,0,0-3-3Zm-50,2H57a1,1,0,0,1,1,1v5.806H6V9.916a1,1,0,0,1,1-1ZM22.878,53.222v-15.3a4.228,4.228,0,0,1,4.093-4.342H37.105A4.228,4.228,0,0,1,41.2,37.919V53.227a23.658,23.658,0,0,1-18.32-.005Zm20.32-.959V37.919a6.228,6.228,0,0,0-6.093-6.342H26.971a6.228,6.228,0,0,0-6.093,6.342V52.257A23.518,23.518,0,0,1,8.547,31.587v-5.06H55.541v5.06A23.518,23.518,0,0,1,43.2,52.263ZM57,24.527H7a1,1,0,0,1-1-1V17.721H58v5.806A1,1,0,0,1,57,24.527ZM32.038,37.145a6.587,6.587,0,0,0-6.579,6.58c.331,8.717,12.83,8.714,13.159,0a6.588,6.588,0,0,0-6.58-6.58Zm0,11.159c-6.052-.192-6.05-8.968,0-9.159,6.053.192,6.051,8.968,0,9.159Z" transform="translate(-4 -6.916)" fill="#56575a"/>
</svg>
