<svg xmlns="http://www.w3.org/2000/svg" width="56" height="35.905" viewBox="0 0 56 35.905">
  <path id="_001-air_conditioner" data-name="001-air conditioner" d="M59,14.048H5a1,1,0,0,0-1,1V29.355a4.124,4.124,0,0,0,4.119,4.119H55.881A4.124,4.124,0,0,0,60,29.355V15.048a1,1,0,0,0-1-1ZM53.152,31.475H10.842V29.711c0-1.621.888-2.99,1.94-2.99h38.43c1.052,0,1.94,1.369,1.94,2.99ZM58,29.355a2.122,2.122,0,0,1-2.119,2.119h-.729V29.711c0-2.8-1.73-4.99-3.94-4.99H12.782c-2.209,0-3.94,2.192-3.94,4.99v1.764H8.119A2.122,2.122,0,0,1,6,29.355V16.048H58ZM14.934,18.745c.942.063,20.978.033,34.224,0a1,1,0,1,1,0,2c-3.805,0-28.14.107-34.421-.006a1,1,0,1,1,.194-1.99Zm5.649,18.527v8.514a4.166,4.166,0,1,1-8.332,0,1,1,0,1,1,2,0,2.166,2.166,0,1,0,4.332,0V37.272a1,1,0,0,1,2,0Zm31.165,8.514a4.166,4.166,0,1,1-8.332,0V37.273a1,1,0,1,1,2,0v8.514a2.166,2.166,0,1,0,4.332,0,1,1,0,1,1,2,0ZM27.292,37.272v7.779a1,1,0,0,1-2,0V37.272a1,1,0,0,1,2,0Zm5.708,0v7.779a1,1,0,0,1-2,0V37.272a1,1,0,0,1,2,0Zm6.208,0v7.779a1,1,0,0,1-2,0V37.272a1,1,0,0,1,2,0Z" transform="translate(-4 -14.048)" fill="#56575a"/>
</svg>
