<svg xmlns="http://www.w3.org/2000/svg" width="44.187" height="56" viewBox="0 0 44.187 56">
  <path id="_007-doorknob" data-name="007-doorknob" d="M26.551,44.507V52.3a1,1,0,0,1-2,0V44.507a1,1,0,0,1,2,0ZM16.964,16.944V12.9a1,1,0,0,1,1-1H33.139a1,1,0,0,1,1,1v4.046a1,1,0,0,1-1,1H17.964a1,1,0,0,1-1-1Zm2-1H32.139V13.9H18.964ZM49.507,34.817h-8.29V56.7a3.3,3.3,0,0,1-3.3,3.3H13.183a3.3,3.3,0,0,1-3.3-3.3V7.3a3.3,3.3,0,0,1,3.3-3.3H37.92a3.3,3.3,0,0,1,3.3,3.3V25.6h8.29c6.1.195,6.079,9.025,0,9.214Zm-10.29,0H33.541C28.846,42.94,16.37,39.6,16.322,30.21c.046-9.392,12.524-12.728,17.218-4.607h5.677V7.3A1.283,1.283,0,0,0,37.92,6H13.183a1.283,1.283,0,0,0-1.3,1.3V56.7a1.283,1.283,0,0,0,1.3,1.3H37.92a1.283,1.283,0,0,0,1.3-1.3ZM49.507,27.6H32.94a1,1,0,0,1-.9-.561,7.229,7.229,0,1,0,0,6.335,1,1,0,0,1,.9-.561c4.091,0,12.43,0,16.567,0a2.607,2.607,0,1,0,0-5.214Z" transform="translate(-9.886 -4)" fill="#56575a"/>
</svg>
