<svg xmlns="http://www.w3.org/2000/svg" width="36.971" height="56" viewBox="0 0 36.971 56">
  <path id="_009-ele" data-name="009-ele" d="M45.485,4H18.514a5.006,5.006,0,0,0-5,5V55a5.006,5.006,0,0,0,5,5s24,0,26.971,0a5.006,5.006,0,0,0,5-5V9a5.006,5.006,0,0,0-5-5ZM24.023,58V33.152a1,1,0,0,1,1-1H31V58ZM33,58V32.152h5.978a1,1,0,0,1,1,1V58Zm15.485-3a3,3,0,0,1-3,3H41.977V33.152a3,3,0,0,0-3-3H25.023a3,3,0,0,0-3,3V58H18.514a3,3,0,0,1-3-3V9a3,3,0,0,1,3-3H45.485a3,3,0,0,1,3,3ZM30.624,26a1,1,0,1,1-1.414,1.414l-2.293-2.293-2.293,2.293A1,1,0,1,1,23.21,26l3-3a1,1,0,0,1,1.414,0ZM40.79,24.419l-3,3a1,1,0,0,1-1.414,0l-3-3A1,1,0,1,1,34.79,23L37.083,25.3,39.376,23a1,1,0,1,1,1.414,1.414Zm-.554-8.229V11.054a3,3,0,0,0-3-3H26.764a3,3,0,0,0-3,3V16.19a3,3,0,0,0,3,3H37.236a3,3,0,0,0,3-3Zm-14.473,0V11.054a1,1,0,0,1,1-1H37.236a1,1,0,0,1,1,1V16.19a1,1,0,0,1-1,1H26.764a1,1,0,0,1-1-1Zm8.447-4.121-1.233,3.78a1,1,0,1,1-1.9-.621l.806-2.47h-.868a1,1,0,1,1,0-2h2.247a1.007,1.007,0,0,1,.95,1.311Z" transform="translate(-13.514 -4)" fill="#56575a"/>
</svg>
