<svg xmlns="http://www.w3.org/2000/svg" width="55.999" height="53.077" viewBox="0 0 55.999 53.077">
  <path id="_011-maps_and_location" data-name="011-maps and location" d="M54.444,24.268a1,1,0,0,0-.986-.835H50.8A15.021,15.021,0,0,0,52.783,16.3C52.014,1.8,31.592,1.966,31,16.324a16.164,16.164,0,0,0,1.857,7.108c-2.292,0-19.6,0-22.317,0a1,1,0,0,0-.986.835L4.014,57.4A1.007,1.007,0,0,0,5,58.567H59a1,1,0,0,0,.986-1.165ZM41.893,7.433a8.96,8.96,0,0,1,8.891,8.915c.146,6-6.742,13.262-8.916,15.4C39.7,29.759,33,23.052,33,16.324a8.9,8.9,0,0,1,8.891-8.891Zm-.64,26.445a1,1,0,0,0,1.313-.028,45.984,45.984,0,0,0,7.074-8.418h2.972L57.724,56,30.074,40.219V25.433h3.9a38.331,38.331,0,0,0,7.283,8.446ZM11.388,25.433H28.074V39.976L8.307,43.857ZM7.954,45.965,28.9,41.852,54.69,56.567H6.181Zm40.78-30.319A6.85,6.85,0,0,0,41.893,8.8c-9.065.344-9.063,13.342,0,13.685a6.85,6.85,0,0,0,6.842-6.842Zm-11.685,0c.2-6.4,9.482-6.4,9.685,0-.2,6.4-9.482,6.4-9.685,0Zm4.192.738V17.85a1,1,0,1,1-2,0V12.919a1,1,0,1,1,2,0v1.465h1.3V12.919a1,1,0,1,1,2,0V17.85a1,1,0,1,1-2,0V16.384Z" transform="translate(-4.001 -5.49)" fill="#56575a"/>
</svg>
