<svg xmlns="http://www.w3.org/2000/svg" width="56" height="38.138" viewBox="0 0 56 38.138">
  <path id="_030-wifi_router" data-name="030-wifi router" d="M56.571,34.491h-5.9l6.447-11.578a1,1,0,1,0-1.747-.973L48.387,34.491H15.613L8.624,21.94a1,1,0,1,0-1.747.973l6.447,11.578h-5.9A3.433,3.433,0,0,0,4,37.92v9.747A3.433,3.433,0,0,0,7.429,51.1H56.571A3.433,3.433,0,0,0,60,47.667V37.92a3.433,3.433,0,0,0-3.429-3.429ZM58,47.667A1.43,1.43,0,0,1,56.571,49.1H7.429A1.43,1.43,0,0,1,6,47.667V37.92a1.43,1.43,0,0,1,1.429-1.429H56.571A1.43,1.43,0,0,1,58,37.92ZM16.03,23.014C22.235,9.953,41.1,9.532,47.948,22.233a1,1,0,1,1-1.754.961c-6.084-11.285-22.851-10.915-28.366.7a1,1,0,1,1-1.8-.877Zm16.166-3.5A11.435,11.435,0,0,0,21.99,25.9a1,1,0,0,1-1.8-.879,13.359,13.359,0,0,1,23.729-.55,1,1,0,1,1-1.752.965A11.4,11.4,0,0,0,32.2,19.517Zm3.656,9.448a1,1,0,1,1-1.776.92,2.139,2.139,0,0,0-3.788.037,1,1,0,1,1-1.785-.9,4.126,4.126,0,0,1,7.35-.055ZM26.142,27.9a1,1,0,1,1-1.8-.879A8.779,8.779,0,0,1,39.889,26.7a1,1,0,1,1-1.756.957c-2.446-4.75-9.763-4.625-11.991.25ZM23.252,40.147v4.68a1,1,0,0,1-2,0v-4.68a1,1,0,0,1,2,0Zm9.878,0v4.68a1,1,0,0,1-2,0v-4.68a1,1,0,1,1,2,0Zm9.617,0v4.68a1,1,0,0,1-2,0v-4.68a1,1,0,1,1,2,0Z" transform="translate(-4 -12.958)" fill="#56575a"/>
</svg>
