<svg xmlns="http://www.w3.org/2000/svg" width="28.052" height="56" viewBox="0 0 28.052 56">
  <path id="_010-fire_extinguisher" data-name="010-fire extinguisher" d="M42.057,9.455,45.744,5.7A1.007,1.007,0,0,0,45.03,4H31.249a1,1,0,0,0-1,1V7.351H23.97a6.007,6.007,0,0,0-6,6v32.5a1,1,0,1,0,2,0v-32.5a4,4,0,0,1,4-4h6.279v4.168A10.342,10.342,0,0,0,22.533,23.5V55.066A4.939,4.939,0,0,0,27.467,60h12.8A4.939,4.939,0,0,0,45.2,55.066s0-30.923,0-31.563a10.342,10.342,0,0,0-7.738-9.99V11.26l4.23,3.219A1,1,0,1,0,42.9,12.888L38.782,9.754h2.561a1,1,0,0,0,.714-.3ZM43.2,42.937H40.165V26.9H43.2Zm0,9.965H24.533v-3.81H43.2ZM40.264,58h-12.8a2.948,2.948,0,0,1-2.934-3.1H43.2A2.948,2.948,0,0,1,40.264,58ZM43.2,23.5v1.4H39.165a1,1,0,0,0-1,1V43.937a1,1,0,0,0,1,1H43.2v2.155H24.533V23.5a8.342,8.342,0,0,1,8.332-8.333h2A8.343,8.343,0,0,1,43.2,23.5ZM34.864,13.17c-.465-.006-2.182-.012-2.615.031V6h3.21v7.2c-.2-.011-.394-.03-.595-.03Zm2.595-5.416V6h5.188L40.923,7.754Z" transform="translate(-17.97 -4)" fill="#56575a"/>
</svg>
