<svg xmlns="http://www.w3.org/2000/svg" xmlns:xlink="http://www.w3.org/1999/xlink" width="25" height="25" viewBox="0 0 25 25">
  <defs>
    <clipPath id="clip-path">
      <rect id="Rectangle_5868" data-name="Rectangle 5868" width="25" height="25" transform="translate(598 2183)" fill="#edeeef" stroke="#707070" stroke-width="1"/>
    </clipPath>
  </defs>
  <g id="Mask_Group_19894" data-name="Mask Group 19894" transform="translate(-598 -2183)" opacity="0.5" clip-path="url(#clip-path)">
    <g id="Group_20744" data-name="Group 20744" transform="translate(600.134 2185.058)">
      <path id="Path_8911" data-name="Path 8911" d="M241,151.077h1.215v1.215H241Z" transform="translate(-231.242 -144.884)" fill="#edeeef"/>
      <path id="Path_8912" data-name="Path 8912" d="M15.961,14.064l-2.81-6.054a3.034,3.034,0,0,0-.963-3.638V1.9a1.822,1.822,0,1,0-3.644,0V4.372A3.034,3.034,0,0,0,7.58,8.009L4.77,14.064C2.979,14.446,0,15.349,0,17.169c0,.758.513,1.431,1.524,2l.6-1.059c-.567-.319-.905-.672-.905-.942,0-.4.8-1.128,2.9-1.7l-.749,1.614a1.826,1.826,0,0,0,.369,2.065l-.548,1.13,1.093.53.553-1.141a1.821,1.821,0,0,0,1.836-1.045L8.446,14.8c.628-.04,1.272-.061,1.919-.061s1.291.021,1.919.061l1.775,3.824a1.822,1.822,0,0,0,1.835,1.044l.553,1.141,1.093-.53-.547-1.128a1.824,1.824,0,0,0,.369-2.065l-.749-1.615c2.106.572,2.9,1.3,2.9,1.7,0,.271-.338.623-.905.942l.6,1.059c1.011-.57,1.524-1.243,1.524-2,0-1.822-2.984-2.724-4.77-3.105ZM9.758,1.9a.607.607,0,1,1,1.215,0V3.824a3.048,3.048,0,0,0-1.215,0Zm.607,3.078A1.823,1.823,0,1,1,8.543,6.8,1.824,1.824,0,0,1,10.366,4.978ZM5.571,18.11a.607.607,0,1,1-1.1-.514L8.405,9.118A3.034,3.034,0,0,0,9.472,9.7Zm3.455-4.558,1.34-2.888,1.34,2.888c-.887-.037-1.794-.037-2.681,0Zm6.136,4.559L11.259,9.7a3.033,3.033,0,0,0,1.067-.586L16.261,17.6a.607.607,0,0,1-1.1.514Z" fill="#edeeef"/>
    </g>
  </g>
</svg>
