<svg xmlns="http://www.w3.org/2000/svg" xmlns:xlink="http://www.w3.org/1999/xlink" width="25" height="25" viewBox="0 0 25 25">
  <defs>
    <clipPath id="clip-path">
      <rect id="Rectangle_5871" data-name="Rectangle 5871" width="25" height="25" transform="translate(598 2359)" fill="#edeeef" stroke="#707070" stroke-width="1"/>
    </clipPath>
  </defs>
  <g id="Mask_Group_19890" data-name="Mask Group 19890" transform="translate(-598 -2359)" opacity="0.5" clip-path="url(#clip-path)">
    <path id="Path_8915" data-name="Path 8915" d="M20.171,3.25H6.4A3.157,3.157,0,0,0,3.25,6.4V21.318a2.01,2.01,0,0,0,2.008,2.008H21.318a2.01,2.01,0,0,0,2.008-2.008V6.4A3.157,3.157,0,0,0,20.171,3.25ZM15.3,12.427V9.846c0-.188.107-.287.143-.287H21.6v2.868Zm6.31,1.721v2.868h-10.9V14.435c0-.165.1-.287.192-.287ZM4.971,6.4A1.436,1.436,0,0,1,6.4,4.971H20.171A1.436,1.436,0,0,1,21.6,6.4V7.839H15.439a1.942,1.942,0,0,0-1.864,2.008v2.581H10.9a1.964,1.964,0,0,0-1.912,2.008v2.581H5.258a1.974,1.974,0,0,0-.287.021ZM21.6,21.318a.287.287,0,0,1-.287.287H5.258a.287.287,0,0,1-.287-.287V19.024a.287.287,0,0,1,.287-.287H21.6Z" transform="translate(597.212 2358.212)" fill="#edeeef"/>
  </g>
</svg>
