<svg xmlns="http://www.w3.org/2000/svg" xmlns:xlink="http://www.w3.org/1999/xlink" width="140" height="140" viewBox="0 0 140 140">
  <defs>
    <clipPath id="clip-path">
      <rect id="Rectangle_6321" data-name="Rectangle 6321" width="140" height="140" transform="translate(115 180)" fill="#fff" stroke="#707070" stroke-width="1"/>
    </clipPath>
  </defs>
  <g id="Logo" transform="translate(-115 -180)" clip-path="url(#clip-path)">
    <path id="Logo_Path" data-name="Logo Path" d="M102.215,74.694l-.01-.033c-.086-.277-.171-.547-.263-.818s-.191-.55-.293-.823-.2-.534-.313-.794l0-.01c-.092-.228-.191-.451-.287-.672-.03-.066-.059-.132-.092-.2-.092-.2-.191-.405-.29-.606l-.036-.069c-.092-.194-.194-.385-.3-.573-.029-.059-.059-.119-.092-.175q-.148-.272-.307-.533a18.29,18.29,0,0,0-1.291-1.928c-.1-.138-.208-.273-.32-.4-.046-.063-.1-.122-.148-.181-.079-.1-.162-.2-.247-.293s-.162-.191-.251-.284-.162-.178-.244-.263-.155-.165-.241-.247-.152-.158-.231-.234c-.1-.105-.211-.2-.316-.3-.069-.069-.142-.136-.214-.2-.148-.135-.3-.264-.448-.389l-.059-.052c-.188-.158-.382-.313-.58-.462a16.461,16.461,0,0,0-1.773-1.173c-.24-.142-.487-.274-.734-.4s-.5-.243-.751-.359-.507-.221-.764-.323c-.128-.052-.257-.1-.389-.148q-.776-.292-1.572-.507c-.267-.073-.533-.142-.8-.2-.4-.092-.807-.175-1.212-.247s-.817-.132-1.226-.181h0c-.227-.027-.452-.053-.679-.073-.2-.019-.405-.036-.613-.049-.118-.009-.237-.016-.356-.023l-.412-.019c-.106-.007-.214-.009-.319-.013-.168-.007-.336-.01-.507-.01l-.112,0h-.267c-.244,0-.488,0-.732.007s-.468.013-.7.023c-.349.016-.695.037-1.044.062s-.689.06-1.031.092c-.251.027-.5.053-.754.086l-.6.079-.672.1-.607.1c-.527.089-1.048.188-1.558.3-.148.03-.293.059-.438.092-.049.01-.1.02-.155.033-.29.066-.573.132-.853.2v0c-1.121.269-2.184.563-3.169.866a7.65,7.65,0,0,1,1.719,2.573,9.183,9.183,0,0,1,.629,3.489A8.774,8.774,0,0,1,69.831,75.5a10.866,10.866,0,0,1-6.112,2.659,15.4,15.4,0,0,1-1.723.1H47.388V61.858c-.942-.247-1.937-.481-2.965-.681-.287-.06-.573-.113-.867-.162-.148-.027-.293-.053-.442-.076q-.44-.079-.889-.138c-.148-.023-.3-.043-.448-.063-.211-.029-.422-.056-.636-.079s-.425-.049-.639-.069c-.352-.039-.708-.069-1.064-.089-.135-.01-.271-.019-.406-.026-.168-.011-.333-.02-.5-.027s-.333-.013-.5-.016c-.1,0-.2-.007-.3-.007-.319-.01-.639-.01-.959,0-.1,0-.188,0-.283,0-.125,0-.254.007-.379.013-.471.017-.946.043-1.417.086l-.31.029-.359.039c-.125.013-.247.03-.369.05-.247.029-.494.066-.742.108-.2.029-.392.066-.589.1q-.6.113-1.186.26c-.247.063-.491.129-.735.2-.052.013-.105.029-.154.046-.116.033-.228.069-.339.106a17.973,17.973,0,0,0-1.934.734c-.145.063-.287.132-.432.2-.106.053-.211.1-.313.155-.066.033-.132.066-.2.1-.2.1-.4.214-.6.329-.089.049-.174.1-.26.154-.155.089-.31.184-.461.284-.168.108-.337.221-.5.336-.184.128-.369.26-.55.4-.162.126-.323.25-.481.379l-.188.158c-.1.079-.191.161-.283.244a17.036,17.036,0,0,0-1.723,1.756l-.089.1c-.164.2-.326.4-.481.6l-.168.217c-.086.116-.172.231-.254.349q-.222.311-.435.632c-.1.158-.2.319-.3.481-.059.092-.116.188-.172.283-.319.537-.619,1.1-.9,1.683-.046.1-.1.2-.142.3s-.089.191-.132.287-.069.162-.106.244c-.049.116-.1.231-.145.349s-.1.241-.148.363c-.059.141-.112.286-.164.431-.037.1-.073.194-.109.293-.066.174-.125.353-.184.53-.023.073-.049.142-.073.214-.066.2-.128.4-.191.6l-.009.033C13.248,71.469,8.5,66.543,3.667,60,8.5,53.457,13.248,48.534,17.785,45.306q.212.712.461,1.383c.033.1.069.194.106.29.046.129.1.257.145.382s.1.254.154.379c.076.194.158.388.247.576.049.122.106.244.162.366a20.509,20.509,0,0,0,1.153,2.172c.073.122.148.241.224.359l.013.019c.039.066.079.129.126.195l.029.043c.1.148.191.293.293.434a18.049,18.049,0,0,0,1.558,1.941q.227.247.464.484c.1.1.2.2.31.3.066.066.135.128.2.191.221.2.448.4.679.59.073.063.145.122.221.181.106.086.214.171.323.253.171.132.346.257.521.379.132.095.27.184.405.273.171.115.343.224.517.326.092.056.181.112.273.161a17.076,17.076,0,0,0,1.542.794c.247.112.494.217.744.313.135.056.27.109.409.158s.257.1.388.138.261.089.392.132.261.082.4.122c.231.069.461.136.695.194.208.056.418.106.629.155.273.063.547.118.823.168.221.042.445.079.669.116.273.042.547.082.821.115a27.125,27.125,0,0,0,3.832.184c.109,0,.214,0,.323-.007.053,0,.106,0,.155,0,.283-.009.563-.023.847-.039.712-.039,1.417-.1,2.116-.184.207-.023.418-.049.626-.079.3-.039.6-.082.893-.128.151-.019.3-.046.448-.073s.29-.052.435-.076c.293-.049.58-.1.867-.162,1.028-.2,2.023-.435,2.965-.682V42.9H60.9a13.385,13.385,0,0,1,3.041.329,10.408,10.408,0,0,1,4.606,2.346,8.53,8.53,0,0,1,2.969,6.793,9.429,9.429,0,0,1-.27,2.31,7.58,7.58,0,0,1-1.279,2.7c.923.293,1.928.586,2.989.859v0c.171.043.342.086.514.132,1.149.28,2.359.534,3.611.732.2.033.412.066.619.1.406.059.817.113,1.229.162l.076.01c.181.02.362.036.54.056.514.052,1.028.092,1.549.116.142.01.287.017.428.023a28.648,28.648,0,0,0,4.6-.165c.273-.037.547-.073.817-.115a19.678,19.678,0,0,0,5.647-1.733c.165-.079.329-.165.494-.251a16.767,16.767,0,0,0,2.263-1.447c.184-.141.366-.283.544-.434l.125-.106q.188-.153.376-.326.089-.074.178-.158c.138-.125.274-.254.409-.389l.106-.1q.237-.237.464-.484l.132-.145c.1-.106.194-.214.283-.323s.168-.191.247-.29c.063-.073.122-.145.174-.218q.133-.158.257-.326c.132-.172.26-.346.386-.521.138-.194.273-.4.4-.6l.079-.126c.109-.164.214-.329.313-.5l.092-.152c.112-.184.221-.376.323-.57l.046-.079q.183-.336.356-.682l.006-.016c.109-.218.214-.435.317-.659a3.058,3.058,0,0,0,.125-.284c.086-.191.171-.386.251-.58a25.664,25.664,0,0,0,.873-2.451l.007-.019c4.537,3.226,9.281,8.151,14.118,14.694-4.837,6.543-9.578,11.469-14.118,14.694M99.833,99.833q-2.975.445-5.723.7a69.172,69.172,0,0,1-8.767.283,1.3,1.3,0,0,1-.161-.007c-.31-.01-.619-.027-.923-.043-.339-.017-.676-.037-1.008-.066s-.659-.053-.982-.086-.643-.063-.959-.1q-.949-.113-1.848-.267a20.084,20.084,0,0,0,2.593-12.312c-.724-5.341-4.016-9.679-7.877-13.04.184-.307.352-.62.507-.943,3.387,3.964,7.8,7.367,13.245,8.109a17.325,17.325,0,0,0,2.3.154,21.191,21.191,0,0,0,10.013-2.748c.053.3.1.6.142.912.049.333.092.673.135,1.015.033.29.066.583.092.879.033.323.063.649.086.979v.007c.027.329.049.666.066,1,.016.293.029.589.043.889,0,.069.007.142.01.211.013.339.019.679.026,1.024s.009.688.009,1.037q0,1.572-.081,3.239v.007c-.027.557-.059,1.123-.1,1.693s-.089,1.16-.142,1.75q-.248,2.748-.7,5.723m-23.438-.257c-.277-.076-.547-.152-.814-.231q-.8-.242-1.552-.524c-.247-.092-.494-.191-.735-.289s-.477-.2-.712-.31-.458-.217-.682-.329c-.442-.221-.867-.458-1.275-.7l-.04-.023c-.1-.056-.191-.115-.283-.177s-.2-.129-.3-.194-.184-.126-.277-.192l-.037-.023c-.148-.105-.293-.211-.438-.322-.079-.059-.162-.122-.241-.185q-.217-.168-.425-.346c-.083-.069-.162-.138-.241-.211-.112-.1-.224-.2-.333-.3s-.2-.191-.3-.289c-.132-.132-.263-.267-.389-.406-.049-.052-.1-.108-.148-.164l-.026-.029c-.1-.106-.188-.218-.28-.327-.122-.148-.241-.3-.356-.448a13.687,13.687,0,0,1-1.324-2.122q-.242-.474-.444-.959v0q-.2-.489-.376-.988c-.076-.224-.148-.448-.214-.676-.132-.451-.247-.909-.346-1.371-.027-.118-.049-.234-.069-.353a20.014,20.014,0,0,1-.29-2.125,25.441,25.441,0,0,1-.079-2.883c.007-.283.016-.561.033-.841l0-.062a14.053,14.053,0,0,0,8.382-3.439c.2-.172.386-.349.567-.531,3.354,2.942,6.154,6.658,6.761,11.133.477,3.519-.445,7.294-2.722,11.248m-1.246-35.3c.191-.043.389-.086.583-.126.171-.036.339-.073.511-.106.092-.019.188-.036.28-.053.155-.029.31-.059.464-.085.534-.1,1.078-.182,1.624-.254.194-.027.392-.053.59-.076.8-.1,1.618-.164,2.438-.194.188-.009.376-.017.563-.019s.4-.007.6-.007a17.434,17.434,0,0,1,10.747,3.156c.152.116.3.234.448.356s.289.247.431.376.261.237.386.362l.033.033q.208.2.4.415c.092.1.178.192.264.291.056.062.108.122.161.184.116.135.231.273.343.415s.244.313.362.474l0,0c.119.159.234.323.346.492.086.125.171.257.257.388l.02.033c.046.069.089.139.132.211l.083.138c.1.165.2.333.293.5l.059.109c.1.178.2.356.287.541l.049.092c.1.191.191.389.28.587l.043.086q.153.336.3.682l0,.009c.1.237.194.484.29.732l0,.016c.092.241.178.484.26.732l.013.043c.082.234.158.471.231.714l.029.1c.073.237.142.478.2.721l.013.043c-3.954,2.277-7.729,3.2-11.248,2.722-5.262-.715-9.486-4.462-12.619-8.586a14.326,14.326,0,0,0,.142-2.02,12.393,12.393,0,0,0-.7-4.233M60,116.333c-6.543-4.837-11.469-9.581-14.694-14.118l.089-.029c.079-.023.158-.047.237-.073.194-.059.389-.122.577-.188s.362-.125.541-.191c.151-.053.3-.108.448-.168s.287-.109.425-.168c.181-.073.359-.145.537-.224s.349-.152.521-.234c.214-.1.425-.2.632-.3s.386-.194.573-.3c.172-.089.336-.181.5-.277.227-.128.451-.263.672-.4.154-.1.3-.191.451-.29a18.161,18.161,0,0,0,2.336-1.828c.164-.152.326-.307.484-.465.1-.1.2-.2.3-.309.066-.066.129-.135.191-.2.2-.221.4-.448.59-.678.062-.073.122-.145.181-.221.086-.106.171-.214.254-.323a15.112,15.112,0,0,0,.958-1.41c.221-.356.422-.722.613-1.091.063-.125.126-.254.188-.382.049-.1.095-.2.142-.307l.052-.115c.049-.112.1-.224.145-.336a17.126,17.126,0,0,0,.6-1.618q.049-.143.089-.287c.036-.112.069-.224.1-.339.049-.165.092-.329.135-.5a21.143,21.143,0,0,0,.425-2.118c.033-.207.062-.411.089-.619.056-.438.1-.879.128-1.318l.03-.435c.013-.194.023-.392.026-.589,0-.168.01-.339.013-.511q.015-1.077-.039-2.152h.929c-.043.853-.056,1.717-.029,2.577.013.372.033.741.059,1.11a23.8,23.8,0,0,0,.458,3.265c.056.264.118.527.184.791a18.7,18.7,0,0,0,1.446,3.882,16.369,16.369,0,0,0,.837,1.449c.076.122.155.237.234.356.161.237.326.468.5.695.142.184.283.366.435.544l.106.125q.153.188.326.376c.049.059.1.118.158.178.125.138.253.273.388.409l.1.105c.158.158.32.313.484.465l.145.132c.106.1.214.194.323.283s.191.168.29.247c.072.063.145.122.217.175q.158.133.327.257c.336.261.688.507,1.051.748.136.089.274.178.412.263l.151.092c.136.086.271.168.409.244.072.046.145.086.217.126.132.075.264.151.4.221.4.221.823.428,1.252.622.122.059.244.116.369.165.1.046.2.089.3.129s.208.092.313.132c.224.092.451.181.679.267l.016.007c.251.1.5.184.761.273l.125.039c.251.086.5.165.761.244l.023.007C71.469,106.752,66.543,111.5,60,116.333M44.423,70.358c-3.147,4.194-7.417,8.033-12.751,8.758-3.519.477-7.3-.445-11.248-2.722l.01-.039c.033-.122.066-.244.1-.366s.069-.24.1-.359l.03-.1c.036-.121.072-.239.112-.362.066-.208.135-.415.208-.619.046-.132.092-.264.142-.4l.059-.164c.092-.234.181-.468.277-.7a19.707,19.707,0,0,1,1.044-2.152c.086-.154.174-.309.267-.458l.082-.138c.043-.072.086-.142.132-.211.089-.141.181-.283.277-.421.112-.168.227-.33.346-.492l0,0c.116-.162.238-.319.363-.474.164-.208.329-.406.5-.6.086-.1.172-.194.264-.291.142-.154.289-.3.438-.448.126-.125.254-.244.386-.362q.425-.386.88-.732a13.7,13.7,0,0,1,1.806-1.16c.174-.1.346-.184.523-.266.155-.079.313-.152.472-.221.181-.082.362-.158.547-.231.162-.063.326-.125.488-.184.079-.03.158-.056.237-.082.112-.04.224-.076.336-.112.207-.066.415-.128.626-.184.155-.043.31-.082.465-.122.4-.1.811-.188,1.222-.257.544-.1,1.091-.172,1.644-.224.155-.017.307-.03.461-.04a29.679,29.679,0,0,1,6.7.307c.138.02.28.043.418.066.119.016.237.036.356.059.27.047.544.1.811.148.145.027.29.056.432.086s.29.056.432.089ZM40.884,88.328a16,16,0,0,1,3.539-7.789v.679H56.6l0,.086c.013.234.023.471.029.709,0,.1.007.214.007.319.017.757,0,1.516-.056,2.27-.017.237-.036.474-.063.712a19.7,19.7,0,0,1-.573,3.146c-.063.227-.129.455-.2.679s-.148.447-.227.668a15.338,15.338,0,0,1-.706,1.621q-.157.316-.336.622c-.115.208-.24.412-.369.609-.194.3-.4.6-.619.887s-.474.6-.731.879c-.119.132-.237.261-.363.386-.145.148-.293.3-.448.438-.1.092-.191.178-.29.263-.194.175-.392.339-.6.5-.155.126-.313.248-.474.363l0,0c-.162.119-.323.234-.491.346-.138.1-.28.188-.422.277-.069.046-.138.089-.211.132l-.139.083c-.148.092-.3.181-.458.267a19.708,19.708,0,0,1-2.152,1.044c-.227.1-.461.184-.7.277l-.164.059c-.132.049-.264.1-.4.142-.2.072-.412.141-.619.207-.122.04-.241.076-.362.112l-.1.029c-.119.037-.237.069-.359.106s-.244.069-.366.1l-.039.011c-2.277-3.954-3.2-7.729-2.722-11.248m-.761,11.979c-.494.079-1,.148-1.512.211-.194.023-.392.046-.593.066-.416.042-.841.079-1.272.112-.329.027-.666.046-1,.066-.29.016-.587.029-.883.043-.405.016-.817.029-1.232.036-1.884.029-3.884-.026-5.986-.172-.29-.019-.577-.043-.87-.066s-.583-.049-.879-.076c-.261-.023-.524-.049-.791-.076s-.53-.053-.8-.082-.54-.059-.811-.092-.527-.063-.794-.1-.563-.072-.85-.112-.557-.076-.837-.115-.561-.079-.844-.122c-.043-.283-.082-.563-.122-.843s-.079-.56-.116-.837-.076-.57-.112-.85-.066-.531-.1-.794-.063-.54-.092-.81-.056-.534-.083-.8-.052-.53-.076-.791c-.026-.3-.053-.59-.076-.88s-.046-.579-.066-.87c-.145-2.1-.2-4.1-.171-5.986.007-.415.019-.827.036-1.232.013-.3.026-.593.043-.883.02-.339.039-.676.066-1,.033-.432.069-.857.112-1.272.02-.2.043-.4.066-.593q.093-.771.211-1.512c.02-.138.043-.277.066-.415a21.19,21.19,0,0,0,10.013,2.748,17.293,17.293,0,0,0,2.3-.154c4.982-.679,9.1-3.585,12.352-7.107v1.226c-3.236,3.159-5.838,7.073-6.478,11.755a20.088,20.088,0,0,0,2.593,12.312c-.139.023-.277.046-.416.066M19.4,26.769c.023-.29.049-.583.076-.879.023-.261.049-.524.076-.791s.053-.53.083-.8.059-.541.092-.811.062-.527.1-.794.072-.563.112-.85.076-.557.116-.837.079-.56.122-.843c.283-.043.564-.082.844-.122s.56-.079.837-.116.57-.076.85-.112.531-.066.794-.1.541-.062.811-.092.534-.056.8-.082.531-.053.791-.076c.3-.027.589-.053.879-.076s.58-.046.87-.066c2.1-.145,4.1-.2,5.986-.171.416.006.827.019,1.232.036.3.014.593.027.883.043.339.019.676.039,1,.066.431.033.856.069,1.272.112.2.02.4.043.593.066.514.063,1.018.132,1.512.211.138.02.277.043.416.066a20.09,20.09,0,0,0-2.593,12.316c.639,4.682,3.246,8.6,6.478,11.756v1.222c-3.256-3.522-7.371-6.428-12.352-7.107a20.085,20.085,0,0,0-12.312,2.593c-.023-.139-.046-.277-.066-.416q-.118-.742-.211-1.513c-.023-.194-.046-.392-.066-.593-.043-.415-.079-.84-.112-1.272-.027-.329-.046-.666-.066-1-.017-.29-.029-.587-.043-.883-.017-.405-.029-.817-.036-1.232-.03-1.884.026-3.884.171-5.987.02-.29.043-.576.066-.869M44.423,55.816c-.142.033-.287.063-.432.089s-.287.059-.435.086c-.267.053-.537.1-.807.148-.119.023-.237.043-.356.059-.138.023-.28.046-.418.066-.389.059-.784.112-1.179.158-.155.019-.313.036-.471.053l-.214.02c-4.758.464-9.8-.073-13.657-3.008q-.455-.346-.88-.731c-.132-.119-.26-.237-.386-.363-.148-.145-.3-.293-.438-.448-.092-.1-.178-.191-.264-.29-.174-.194-.339-.392-.5-.6-.125-.154-.247-.313-.363-.474l0,0c-.119-.161-.234-.323-.346-.491-.1-.138-.188-.28-.277-.422-.046-.069-.089-.138-.132-.211l-.082-.138c-.092-.148-.181-.3-.267-.458a19.706,19.706,0,0,1-1.044-2.152c-.1-.227-.184-.461-.277-.7l-.059-.165c-.049-.131-.1-.264-.142-.4-.073-.2-.142-.412-.208-.619-.039-.122-.076-.241-.112-.363l-.03-.1c-.036-.119-.069-.238-.1-.359s-.069-.244-.1-.366l-.01-.039c3.957-2.277,7.729-3.2,11.248-2.722,5.334.728,9.6,4.567,12.751,8.757ZM56.507,39.931h-11.7a16.3,16.3,0,0,1-3.924-8.259c-.478-3.519.445-7.294,2.722-11.248l.039.01c.122.033.244.066.366.1s.241.069.359.106l.1.029c.122.037.241.073.362.112.208.066.415.135.619.208.132.046.263.092.4.142l.164.059c.234.092.468.182.7.277a19.706,19.706,0,0,1,2.152,1.044c.155.086.309.174.458.267l.139.082c.072.043.142.086.211.132.142.088.283.181.422.276.168.112.329.228.491.346l0,0c.161.115.319.237.474.362.207.164.4.329.6.5.1.086.194.171.29.263.155.142.3.291.448.438.126.125.244.254.363.386q.385.425.731.88a13.975,13.975,0,0,1,.821,1.209c.043.073.086.145.125.217.076.126.145.251.214.379.059.1.112.211.164.316.2.4.389.81.554,1.226.062.162.125.326.184.488.029.079.056.158.082.237.063.178.119.359.172.537l.043.138c.043.138.082.279.118.418.049.184.1.373.138.557l.013.052c.039.165.072.33.106.494.016.066.029.132.039.2.063.313.115.633.158.952.023.151.043.3.059.454l.013.118c.023.192.043.383.059.577s.026.359.039.54c.046.764.059,1.536.043,2.306-.007.228-.017.458-.026.686-.023.458-.056.919-.1,1.373M60,3.667C66.543,8.5,71.469,13.248,74.694,17.785l-.033.009c-.277.086-.547.171-.817.264s-.551.191-.824.293-.534.2-.794.313l-.01,0c-.227.092-.451.191-.672.287-.066.029-.132.059-.2.092-.2.092-.405.191-.606.29l-.069.036c-.194.092-.386.194-.573.3-.059.029-.119.059-.175.092-.181.1-.359.2-.533.306a18.44,18.44,0,0,0-1.928,1.292q-.208.152-.4.319c-.063.046-.122.1-.181.148-.1.079-.2.162-.293.247s-.191.161-.283.25-.178.162-.263.244-.165.155-.247.241-.158.152-.234.231c-.106.1-.2.211-.3.316-.069.069-.135.142-.2.214-.135.148-.263.3-.389.448l-.052.059c-.158.188-.313.383-.462.58-3.219,4.234-3.993,9.545-3.667,14.589.009.165.019.33.036.494,0,.063.007.129.013.191H59.463c.036-.4.063-.8.079-1.2.006-.145.013-.287.019-.432a27.907,27.907,0,0,0-.1-3.749c-.019-.221-.043-.445-.069-.666a21.434,21.434,0,0,0-1-4.425c-.033-.1-.066-.191-.1-.283-.066-.191-.138-.379-.214-.567s-.148-.363-.231-.543a16.632,16.632,0,0,0-1.5-2.712c-.162-.234-.326-.468-.5-.7-.126-.162-.251-.323-.379-.481l-.158-.187c-.079-.1-.162-.192-.244-.284a17.037,17.037,0,0,0-1.756-1.723l-.1-.089c-.234-.2-.478-.392-.724-.577-.112-.086-.224-.172-.339-.251l-.106-.076q-.312-.222-.633-.436c-.158-.1-.319-.2-.481-.3-.092-.059-.188-.116-.283-.171-.537-.319-1.1-.619-1.683-.9l-.3-.141c-.1-.046-.191-.089-.287-.132s-.161-.069-.243-.105c-.116-.049-.231-.1-.349-.145l-.363-.148c-.142-.059-.286-.112-.431-.164l-.293-.109c-.174-.066-.353-.126-.531-.184-.072-.023-.142-.049-.214-.073-.2-.066-.4-.128-.6-.191l-.033-.009C48.531,13.248,53.457,8.5,60,3.667m3.861,28.687.033-.145c.036-.171.079-.339.122-.507s.089-.336.138-.5l0-.007c.069-.224.138-.448.214-.672.112-.333.234-.663.372-.986l0,0c.135-.326.28-.646.441-.959.053-.106.109-.211.165-.316q.138-.258.287-.5a13.326,13.326,0,0,1,.873-1.3c.116-.152.234-.3.356-.448s.247-.29.376-.432.237-.26.362-.386l.033-.033q.2-.208.416-.406c.1-.092.191-.178.29-.263.062-.056.122-.109.184-.161.135-.116.273-.231.415-.343s.313-.244.474-.362l0,0c.158-.118.323-.234.491-.346.125-.086.257-.171.388-.257l.033-.019c.069-.046.138-.089.211-.132l.138-.082c.165-.1.333-.2.5-.293l.109-.059c.178-.1.356-.2.54-.287l.092-.049c.191-.1.389-.191.587-.28l.086-.043q.336-.153.682-.3l.009,0c.237-.1.484-.194.732-.29l.017,0c.241-.092.484-.178.731-.261l.043-.013c.234-.082.471-.158.715-.231l.1-.029c.237-.072.478-.142.722-.2l.043-.013c2.277,3.953,3.2,7.729,2.722,11.248-.686,5.031-4.135,9.113-8.043,12.2-.184-.181-.372-.362-.57-.537a13.619,13.619,0,0,0-6.991-3.209,24.9,24.9,0,0,1,.349-7.776M98.822,45.971c-.089.251-.188.494-.29.734s-.2.478-.31.712-.214.458-.329.682c-.221.441-.458.867-.7,1.275l-.023.039q-.084.144-.178.283c-.062.1-.128.2-.194.3s-.126.184-.191.277l-.023.036c-.106.148-.211.293-.323.438-.059.079-.122.162-.184.241q-.168.218-.346.425c-.069.082-.138.161-.211.241-.1.112-.2.224-.3.333s-.191.2-.29.3c-.132.132-.267.263-.406.388-.052.049-.108.1-.164.148l-.029.027c-.106.1-.218.188-.326.28-.148.122-.3.241-.448.356-3.417,2.6-7.752,3.318-12,3.127-.184-.006-.369-.017-.55-.029s-.382-.023-.57-.039c-.145-.011-.29-.023-.435-.04s-.309-.029-.461-.046-.273-.029-.409-.046c-.154-.017-.306-.036-.458-.059-.122-.013-.244-.03-.366-.049-.175-.023-.349-.05-.521-.079s-.363-.057-.544-.089-.359-.062-.537-.1c-.893-.165-1.763-.356-2.6-.564a12.307,12.307,0,0,0,.382-3.111c0-.382-.016-.754-.046-1.123,3.226-4.771,7.878-9.542,13.891-10.359,3.519-.478,7.294.445,11.248,2.722-.076.277-.152.547-.231.814q-.243.8-.524,1.552M80.374,19.617c.333-.049.672-.092,1.015-.135.29-.033.583-.066.879-.092.323-.033.649-.063.978-.086h.007c.329-.026.666-.049,1-.066.293-.017.59-.029.889-.043l.211-.009c.339-.013.678-.02,1.024-.026s.688-.009,1.038-.009q1.571,0,3.239.081h.007c.557.026,1.123.059,1.693.1s1.16.089,1.749.142q2.747.248,5.723.695.445,2.976.7,5.723a69.163,69.163,0,0,1,.283,8.767,1.313,1.313,0,0,1-.007.162c-.007.31-.023.619-.043.923-.017.339-.036.675-.066,1.008s-.049.658-.086.981-.063.643-.1.959q-.113.948-.267,1.848a20.09,20.09,0,0,0-12.312-2.593c-6.086.83-10.879,4.982-14.395,9.522a11.064,11.064,0,0,0-.646-1.282c4.4-3.486,8.359-8.184,9.166-14.111a20.086,20.086,0,0,0-2.593-12.316c.3-.053.6-.1.913-.142m39,39.513Q110.945,47.5,102.989,42.192c.019-.1.039-.188.053-.284.046-.231.089-.464.128-.7.039-.214.072-.425.106-.642.029-.184.056-.369.082-.557s.053-.376.076-.564.049-.382.069-.573c.02-.165.036-.33.053-.494l.013-.129c.016-.164.033-.333.049-.5a68.011,68.011,0,0,0-.178-12.6q-.128-1.334-.3-2.724c-.039-.307-.079-.62-.122-.933-.082-.626-.171-1.255-.27-1.894-.046-.319-.1-.642-.148-.966l-.171-1.061-1.061-.171a90.3,90.3,0,0,0-14.088-1.236q-.518,0-1.028.01-.455,0-.9.019c-.076,0-.148,0-.221.007q-.445.014-.88.039c-.253.013-.5.027-.754.043l-.063,0c-.122.009-.243.016-.362.027-.26.016-.517.039-.774.063-.3.026-.593.056-.883.088h-.026q-.455.05-.9.109c-.237.029-.474.063-.708.1l-.32.049c-.563.086-1.113.181-1.651.29Q72.51,9.074,60.87.629L60,0l-.87.629Q47.5,9.056,42.192,17.011a42.413,42.413,0,0,0-5.268-.695c-.112-.011-.224-.017-.339-.023-.629-.046-1.275-.076-1.931-.1-.3-.01-.6-.017-.9-.019-.336-.007-.679-.01-1.022-.01h-.007c-.293,0-.589,0-.889.007-.234,0-.474.006-.715.013-.168,0-.336.007-.507.013-.2.006-.408.013-.616.023-.234.006-.468.016-.705.029-.221.011-.438.023-.662.037-.28.016-.567.033-.85.053q-1.631.108-3.344.29c-.211.023-.422.043-.632.069-.455.049-.909.1-1.374.162-.307.036-.619.079-.933.122-.623.086-1.255.174-1.894.27-.319.049-.642.1-.965.151l-1.061.168L17.4,18.634a81.4,81.4,0,0,0-1.121,17.792c.007.142.017.28.027.418.013.168.026.333.039.5.007.1.013.2.026.3.02.247.043.494.069.736.029.286.063.566.1.846l.007.059c.036.283.072.56.112.837.02.138.037.273.059.409.076.488.158.968.251,1.437.013.075.026.151.043.227Q9.074,47.49.629,59.13L0,60l.629.869Q9.055,72.5,17.011,77.808a42.4,42.4,0,0,0-.695,5.268c-.01.112-.017.224-.023.339-.046.629-.076,1.275-.1,1.931-.01.3-.016.6-.02.9-.006.336-.009.679-.009,1.021v.007c0,.293,0,.59.007.89,0,.234.007.474.013.714,0,.168.007.336.013.508.007.2.013.408.023.616.006.234.016.468.029.7.01.221.023.438.036.662.017.28.033.567.053.849q.108,1.631.29,3.344.1.988.231,2.007c.036.307.079.619.122.932.086.623.175,1.256.271,1.894.049.319.1.643.152.966l.168,1.061,1.061.171c.356.056.708.112,1.057.162.333.052.662.1.992.144.105.017.211.033.313.043q.548.08,1.087.148c.072.01.148.02.221.027.343.043.686.086,1.028.125q.919.109,1.818.194c.293.03.587.056.88.082.589.053,1.169.1,1.746.135.283.02.57.037.85.053.593.036,1.176.062,1.749.082.178.007.356.01.534.016.062,0,.122,0,.181,0h.026c.241,0,.478.006.715.013.162,0,.323,0,.484,0l.135,0c.092,0,.184,0,.273,0s.148,0,.218,0c.866,0,1.707-.023,2.53-.063.191-.007.379-.017.567-.026.083,0,.162-.01.241-.017h.02l.254-.019c.342-.023.685-.046,1.021-.076.155-.013.313-.029.468-.043.553-.049,1.1-.112,1.628-.184.234-.029.464-.063.7-.1q.816-.124,1.6-.277c.076-.013.152-.026.228-.043q5.3,7.937,16.938,16.381L60,120l.87-.629q11.628-8.427,16.938-16.381c.1.019.188.039.283.053.231.046.464.089.7.128.211.039.425.072.639.106.171.026.346.053.517.076l.076.013.531.069c.4.053.794.1,1.2.135.155.017.309.033.464.046a67.769,67.769,0,0,0,12.632-.174q1.334-.129,2.724-.3c.307-.039.619-.079.933-.122.622-.086,1.255-.174,1.894-.27.319-.046.642-.1.965-.148l1.061-.171.171-1.061a90.3,90.3,0,0,0,1.236-14.088q0-.519-.01-1.028-.005-.455-.019-.9c0-.076,0-.148-.007-.221q-.015-.444-.039-.879c-.013-.253-.027-.5-.043-.754l0-.063c-.01-.122-.017-.243-.027-.362-.017-.261-.039-.517-.063-.774-.026-.3-.056-.593-.089-.883v-.026q-.049-.455-.108-.9c-.03-.237-.063-.474-.1-.708-.017-.109-.033-.214-.049-.32-.086-.563-.181-1.114-.29-1.651q7.937-5.3,16.381-16.938L120,60Z" transform="translate(125 190)" fill="#fff"/>
  </g>
</svg>
