<svg xmlns="http://www.w3.org/2000/svg" width="70" height="70" viewBox="0 0 70 70">
  <g id="Group_14120" data-name="Group 14120" transform="translate(-688 -2330)">
    <g id="Group_14119" data-name="Group 14119" transform="translate(-1801 -1054)">
      <rect id="Rectangle_2064" data-name="Rectangle 2064" width="70" height="70" transform="translate(2489 3384)" fill="#fff" opacity="0"/>
      <g id="Group_6055" data-name="Group 6055" transform="translate(-298.653 -21.852)">
        <path id="Path_1594" data-name="Path 1594" d="M451.49,113.26c-.013-.015-.026-.03-.04-.044a30.391,30.391,0,0,0-2.513-2.477.916.916,0,1,0-1.207,1.377q.81.71,1.558,1.474c-.567.284-1.155.558-1.765.817a.916.916,0,1,0,.715,1.686c.813-.345,1.6-.714,2.336-1.1a28.506,28.506,0,0,1,6.364,13.16H444.468a53.662,53.662,0,0,0-.856-5.844.916.916,0,0,0-1.794.368,51.655,51.655,0,0,1,.812,5.477H429.887v-5.66a.916.916,0,0,0-1.831,0v5.66H415.312a51.734,51.734,0,0,1,.812-5.477.916.916,0,1,0-1.794-.368,53.6,53.6,0,0,0-.856,5.844H401a28.471,28.471,0,0,1,6.365-13.16c.75.392,1.541.766,2.364,1.115a.916.916,0,0,0,.714-1.686c-.62-.262-1.218-.541-1.794-.829q.817-.831,1.706-1.6a.916.916,0,1,0-1.2-1.386,30.362,30.362,0,0,0-2.671,2.615c-.012.013-.024.025-.035.039a30.3,30.3,0,0,0-7.8,20.3.916.916,0,1,0,1.831,0,28.484,28.484,0,0,1,.227-3.572h12.625c-.071,1.179-.111,2.37-.111,3.572a.916.916,0,1,0,1.831,0c0-1.2.041-2.393.114-3.572h12.884v3.572a.916.916,0,1,0,1.831,0v-3.572h12.884c.073,1.178.114,2.369.114,3.572a.916.916,0,1,0,1.831,0c0-1.2-.04-2.392-.111-3.572H457.23a28.5,28.5,0,0,1,.227,3.572.916.916,0,1,0,1.831,0,30.324,30.324,0,0,0-7.8-20.294" transform="translate(2389 3331.382)" fill="#fff"/>
        <path id="Path_1595" data-name="Path 1595" d="M433.6,57.63a.916.916,0,0,0,0,1.831h38.123a.916.916,0,1,0,0-1.831h-1.885V34.6a.916.916,0,0,0-.916-.916h-5.2a.916.916,0,0,0-.916.916V57.63h-1.939V24.768a.916.916,0,0,0-.916-.916h-5.2a.916.916,0,0,0-.916.916V57.63H451.9V35.822a.916.916,0,0,0-.916-.916h-5.2a.916.916,0,0,0-.916.916V57.63h-1.939V44.088a.916.916,0,0,0-.916-.916h-5.2a.916.916,0,0,0-.915.916V57.63Zm31.038-22.114h3.369V57.63h-3.369Zm-8.971-9.833h3.369V57.63h-3.369Zm-8.971,11.054h3.369V57.63h-3.369ZM437.724,45h3.369V57.63h-3.369Z" transform="translate(2365.16 3392)" fill="#fff"/>
      </g>
    </g>
  </g>
</svg>
