<svg xmlns="http://www.w3.org/2000/svg" width="70" height="70" viewBox="0 0 70 70">
  <g id="Group_14122" data-name="Group 14122" transform="translate(-615 -2302)">
    <g id="Group_14121" data-name="Group 14121" transform="translate(-1968 -1082)">
      <rect id="Rectangle_2065" data-name="Rectangle 2065" width="70" height="70" transform="translate(2583 3384)" fill="#fff" opacity="0"/>
      <g id="Group_6056" data-name="Group 6056" transform="translate(-505.015 -20.011)">
        <path id="Path_1592" data-name="Path 1592" d="M730.361,71.563c-.521.164-1.047.307-1.578.432a12.418,12.418,0,0,0,.97-.937A.778.778,0,0,0,728.613,70a7.486,7.486,0,0,1-4.349,2.553V50.473h1.719a.777.777,0,1,0,0-1.555h-1.719V26.837a7.486,7.486,0,0,1,4.349,2.553.777.777,0,0,0,1.14-1.058,12.335,12.335,0,0,0-.969-.935c.65.154,1.294.333,1.929.544a.777.777,0,1,0,.49-1.476,24.471,24.471,0,1,0-.376,46.581.778.778,0,0,0-.466-1.484M707.282,33.491A22.763,22.763,0,0,1,718.175,27.4a16.918,16.918,0,0,0-3.833,5.192,27.914,27.914,0,0,0-1.329,3.12A29.4,29.4,0,0,1,707.18,33.6c.035-.035.067-.072.1-.107m-1.19,1.293a30.308,30.308,0,0,0,6.428,2.4,42.722,42.722,0,0,0-1.752,11.731H700.589a22.718,22.718,0,0,1,5.5-14.134m0,29.823a22.719,22.719,0,0,1-5.5-14.134h10.179A42.733,42.733,0,0,0,712.52,62.2a30.288,30.288,0,0,0-6.428,2.4m1.19,1.293c-.035-.035-.067-.072-.1-.107a29.365,29.365,0,0,1,5.833-2.113,27.914,27.914,0,0,0,1.329,3.12,16.922,16.922,0,0,0,3.833,5.192A22.765,22.765,0,0,1,707.282,65.9m15.427,6.649c-2.6-.377-5.052-2.629-6.979-6.45a26.266,26.266,0,0,1-1.192-2.769,43.538,43.538,0,0,1,8.171-.9Zm0-11.67a44.984,44.984,0,0,0-8.671.97,41.042,41.042,0,0,1-1.715-11.376h10.386Zm0-11.961H712.323a41.042,41.042,0,0,1,1.715-11.376,45,45,0,0,0,8.671.97Zm0-11.961a43.538,43.538,0,0,1-8.171-.9,26.266,26.266,0,0,1,1.192-2.769c1.927-3.82,4.381-6.073,6.979-6.45Z" transform="translate(2389 3389.604)" fill="#fff"/>
        <path id="Path_1593" data-name="Path 1593" d="M828.172,54.96a10.557,10.557,0,0,0-1.69-6.005c-1.556-2.331-4.177-4.215-8.014-5.758-5.042-2.057-5.423-3-5.429-4.2-.008-1.6,1.348-2.566,3.627-2.577a11.039,11.039,0,0,1,5.778,1.533,2.085,2.085,0,0,0,2.979-1.086l1.333-3.571a2.084,2.084,0,0,0-.921-2.533,16.372,16.372,0,0,0-6.013-1.978l-.017-4.743a2.026,2.026,0,0,0-2.058-2.027h-.011l-3.348.017a1.932,1.932,0,0,0-1.435.615,2.086,2.086,0,0,0-.526,1.431l.019,5.205a11.6,11.6,0,0,0-5.85,3.671,10.347,10.347,0,0,0-2.312,6.735A9.476,9.476,0,0,0,807.528,47a22.548,22.548,0,0,0,7,3.912c4.8,1.917,4.8,3.578,4.808,4.471a2.786,2.786,0,0,1-1.1,2.278,5.228,5.228,0,0,1-3.229.951,12.244,12.244,0,0,1-6.634-1.939,2.088,2.088,0,0,0-3.118,1.047l-1.279,3.625a2.052,2.052,0,0,0,.685,2.4,16.653,16.653,0,0,0,7.325,2.58L812,69.937a2.223,2.223,0,0,0,2.239,2.074h.011l3.4-.017a2.031,2.031,0,0,0,1.466-.625A2.091,2.091,0,0,0,819.7,69.9l-.02-4.056c5.206-1.546,8.518-5.76,8.493-10.884M818.709,64.5a.778.778,0,0,0-.588.758l.022,4.652a.544.544,0,0,1-.148.383.483.483,0,0,1-.354.149l-3.4.017h0c-.326,0-.683-.275-.685-.527l-.021-4.316a.778.778,0,0,0-.712-.771,15.408,15.408,0,0,1-7.267-2.373.526.526,0,0,1-.117-.61l1.279-3.625a.534.534,0,0,1,.795-.266,13.831,13.831,0,0,0,7.5,2.2,6.751,6.751,0,0,0,4.182-1.283,4.347,4.347,0,0,0,1.7-3.508,4.406,4.406,0,0,0-1.093-3,11.984,11.984,0,0,0-4.7-2.913,21.182,21.182,0,0,1-6.517-3.615,8,8,0,0,1-2.737-6.172c-.022-4.514,2.807-7.895,7.569-9.043a.778.778,0,0,0,.595-.759l-.021-5.807a.546.546,0,0,1,.117-.373.388.388,0,0,1,.3-.111l3.349-.016h0a.467.467,0,0,1,.5.479l.02,5.432a.777.777,0,0,0,.7.771,15.081,15.081,0,0,1,6.082,1.856.54.54,0,0,1,.244.644l-1.333,3.571a.53.53,0,0,1-.758.276,12.485,12.485,0,0,0-6.48-1.735h-.07c-3.834.019-5.184,2.242-5.174,4.139.012,2.351,1.446,3.615,6.4,5.636l0,0c3.489,1.4,5.946,3.146,7.3,5.18a8.947,8.947,0,0,1,1.429,5.15c.022,4.576-3.082,8.316-7.908,9.53" transform="translate(2310.83 3392)" fill="#fff"/>
      </g>
    </g>
  </g>
</svg>
