<svg xmlns="http://www.w3.org/2000/svg" width="70" height="70" viewBox="0 0 70 70">
  <g id="Group_14124" data-name="Group 14124" transform="translate(-800.5 -2277)">
    <g id="Group_14123" data-name="Group 14123" transform="translate(-1940.5 -1107)">
      <rect id="Rectangle_2066" data-name="Rectangle 2066" width="70" height="70" transform="translate(2741 3384)" fill="#fff" opacity="0"/>
      <g id="Group_6057" data-name="Group 6057" transform="translate(-687.273 2)">
        <path id="Path_1596" data-name="Path 1596" d="M1119.393,149.67a.829.829,0,0,0-1.089,0l-5.584,4.861a.829.829,0,0,0-.285.626v6.182a.829.829,0,0,0,.829.829h11.168a.829.829,0,0,0,.829-.829v-6.182a.829.829,0,0,0-.285-.626Zm4.21,10.839h-9.509v-4.975l4.755-4.139,4.755,4.139Z" transform="translate(2334.095 3279.832)" fill="#fff"/>
        <path id="Path_1597" data-name="Path 1597" d="M1186.372,128.276a.829.829,0,0,0-1.089,0l-4.338,3.776a.829.829,0,0,0-.285.625v4.8a.829.829,0,0,0,.829.829h8.675a.829.829,0,0,0,.83-.829v-4.8a.829.829,0,0,0-.285-.625Zm2.964,8.375h-7.017v-3.6l3.509-3.054,3.508,3.054Z" transform="translate(2282.895 3295.887)" fill="#fff"/>
        <path id="Path_1598" data-name="Path 1598" d="M1210.862,90.836l-3.5-3.047a.83.83,0,0,0-1.089,0l-3.5,3.047a.829.829,0,0,0-.285.625v3.875a.829.829,0,0,0,.829.829h7a.829.829,0,0,0,.829-.829V91.461a.829.829,0,0,0-.285-.625m-1.374,3.672h-5.342V91.838l2.671-2.325,2.671,2.325Z" transform="translate(2266.514 3326.271)" fill="#fff"/>
        <path id="Path_1599" data-name="Path 1599" d="M1047.932,95.336V91.461a.829.829,0,0,0-.285-.625l-3.5-3.047a.829.829,0,0,0-1.089,0l-3.5,3.047a.829.829,0,0,0-.285.625v3.875a.829.829,0,0,0,.829.829h7a.829.829,0,0,0,.829-.829m-1.659-.829h-5.342V91.838l2.671-2.325,2.671,2.325Z" transform="translate(2389 3326.271)" fill="#fff"/>
        <path id="Path_1600" data-name="Path 1600" d="M1059.2,128.276a.829.829,0,0,0-1.089,0l-4.338,3.776a.829.829,0,0,0-.285.625v4.8a.829.829,0,0,0,.829.829h8.675a.829.829,0,0,0,.829-.829v-4.8a.829.829,0,0,0-.285-.625Zm2.964,8.375h-7.017v-3.6l3.509-3.054,3.508,3.054Z" transform="translate(2378.332 3295.887)" fill="#fff"/>
        <path id="Path_1601" data-name="Path 1601" d="M1087.957,69.37h-3.229V67.362l2.088-1.817.612.508a.829.829,0,0,0,1.058-1.277l-1.154-.957a.829.829,0,0,0-1.074.013l-2.9,2.528a.829.829,0,0,0-.285.625V70.2a.829.829,0,0,0,.829.829h4.058a.829.829,0,0,0,0-1.659" transform="translate(2356.133 3344.25)" fill="#fff"/>
        <path id="Path_1602" data-name="Path 1602" d="M1175.867,70.2V66.984a.829.829,0,0,0-.285-.626l-2.9-2.528a.83.83,0,0,0-1.074-.013l-1.154.957a.829.829,0,0,0,1.058,1.277l.612-.507,2.088,1.817v2.008h-3.229a.829.829,0,0,0,0,1.659h4.058a.829.829,0,0,0,.83-.829" transform="translate(2290.782 3344.251)" fill="#fff"/>
        <path id="Path_1603" data-name="Path 1603" d="M1123.115,3h-.387V.829A.829.829,0,0,0,1121.9,0h-10.062a.829.829,0,0,0-.829.829V3h-.372a.829.829,0,0,0-.829.829V31.812a.829.829,0,1,0,1.658,0V4.654h10.821V7.961h-2.322a.829.829,0,1,0,0,1.659h2.322v3.207h-2.322a.829.829,0,1,0,0,1.659h2.322v3.1h-2.322a.829.829,0,1,0,0,1.659h2.322v3.1h-2.322a.829.829,0,1,0,0,1.658h2.322v7.817a.829.829,0,1,0,1.659,0V3.824a.829.829,0,0,0-.829-.829m-10.449-1.337h8.4V3h-8.4Z" transform="translate(2336.068 3392)" fill="#fff"/>
        <path id="Path_1604" data-name="Path 1604" d="M1128.749,108.207v4.187a.829.829,0,1,0,1.659,0v-3.358h1.367v3.358a.829.829,0,1,0,1.659,0v-4.187a.829.829,0,0,0-.829-.829h-3.026a.829.829,0,0,0-.829.829" transform="translate(2321.852 3311.417)" fill="#fff"/>
        <path id="Path_1605" data-name="Path 1605" d="M1135.168,33.563h.442a.829.829,0,1,0,0-1.659h-.442a.829.829,0,0,0,0,1.659" transform="translate(2317.657 3368.057)" fill="#fff"/>
        <path id="Path_1606" data-name="Path 1606" d="M1121.431,33.563h.442a.829.829,0,0,0,0-1.659h-.442a.829.829,0,0,0,0,1.659" transform="translate(2327.966 3368.057)" fill="#fff"/>
        <path id="Path_1607" data-name="Path 1607" d="M1135.168,53.06h.442a.829.829,0,1,0,0-1.659h-.442a.829.829,0,0,0,0,1.659" transform="translate(2317.657 3353.426)" fill="#fff"/>
        <path id="Path_1608" data-name="Path 1608" d="M1121.431,53.06h.442a.829.829,0,0,0,0-1.659h-.442a.829.829,0,0,0,0,1.659" transform="translate(2327.966 3353.426)" fill="#fff"/>
        <path id="Path_1609" data-name="Path 1609" d="M1135.168,72.114h.442a.829.829,0,1,0,0-1.659h-.442a.829.829,0,0,0,0,1.659" transform="translate(2317.657 3339.126)" fill="#fff"/>
        <path id="Path_1610" data-name="Path 1610" d="M1121.431,72.114h.442a.829.829,0,0,0,0-1.659h-.442a.829.829,0,0,0,0,1.659" transform="translate(2327.966 3339.126)" fill="#fff"/>
        <path id="Path_1611" data-name="Path 1611" d="M1135.168,91.167h.442a.829.829,0,1,0,0-1.659h-.442a.829.829,0,0,0,0,1.659" transform="translate(2317.657 3324.828)" fill="#fff"/>
        <path id="Path_1612" data-name="Path 1612" d="M1121.431,91.167h.442a.829.829,0,0,0,0-1.659h-.442a.829.829,0,0,0,0,1.659" transform="translate(2327.966 3324.828)" fill="#fff"/>
      </g>
    </g>
  </g>
</svg>
