<svg xmlns="http://www.w3.org/2000/svg" width="70" height="70" viewBox="0 0 70 70">
  <g id="Group_14118" data-name="Group 14118" transform="translate(-2374 -3384)">
    <rect id="Rectangle_2063" data-name="Rectangle 2063" width="70" height="70" transform="translate(2374 3384)" fill="#fff" opacity="0"/>
    <g id="Group_6054" data-name="Group 6054" transform="translate(-15 -11.865)">
      <path id="Path_1584" data-name="Path 1584" d="M59.15,107.944a4.064,4.064,0,0,0-3.566-2.245H49.87a4.065,4.065,0,0,0-3.566,2.245L33.9,131.568a.815.815,0,0,0,1.444.758l12.4-23.624a2.441,2.441,0,0,1,2.122-1.372h5.713a2.44,2.44,0,0,1,2.122,1.372l12.4,23.624a.815.815,0,0,0,1.444-.758Z" transform="translate(2363.634 3323.102)" fill="#fff"/>
      <path id="Path_1585" data-name="Path 1585" d="M184.208,145.813l-2.564-2.606a1.988,1.988,0,0,0-1.939-.548,2.119,2.119,0,0,0-1.5,1.538l-1.506,5.611a2.07,2.07,0,0,1-1.912,1.62h-.738a.815.815,0,1,0,0,1.631h.738a3.7,3.7,0,0,0,3.487-2.828l1.506-5.611a.511.511,0,0,1,.34-.384.359.359,0,0,1,.361.115l2.564,2.606a.681.681,0,0,1,.149.637l-2.08,7.8a2.07,2.07,0,0,1-1.913,1.624h-2.233a.816.816,0,0,0,0,1.631H179.2a3.7,3.7,0,0,0,3.489-2.835l2.08-7.8a2.3,2.3,0,0,0-.563-2.2" transform="translate(2259.033 3295.423)" fill="#fff"/>
      <path id="Path_1586" data-name="Path 1586" d="M161.569,127.249a1.463,1.463,0,0,1-1.345,1.154h-1.536a.816.816,0,0,0,0,1.631h1.536a3.092,3.092,0,0,0,2.921-2.365l1.643-6.159a1.989,1.989,0,0,0-.488-1.9l-2.024-2.058a1.739,1.739,0,0,0-1.7-.478,1.843,1.843,0,0,0-1.306,1.336l-1.189,4.43a1.463,1.463,0,0,1-1.344,1.152h-.33a.815.815,0,1,0,0,1.631h.33a3.092,3.092,0,0,0,2.919-2.36l1.189-4.43c.038-.143.122-.175.146-.182s.067-.008.119.045l2.024,2.058a.367.367,0,0,1,.075.338Z" transform="translate(2272.267 3314.613)" fill="#fff"/>
      <path id="Path_1587" data-name="Path 1587" d="M145.55,105.194a.86.86,0,0,1-.779.688h-.776a.815.815,0,1,0,0,1.631h.776a2.488,2.488,0,0,0,2.355-1.9l1.207-4.525a1.677,1.677,0,0,0-.413-1.6l-1.487-1.512a1.49,1.49,0,0,0-1.456-.409,1.568,1.568,0,0,0-1.114,1.135l-.874,3.255a.86.86,0,0,1-.779.686.815.815,0,0,0,0,1.631,2.488,2.488,0,0,0,2.354-1.894l.839-3.124,1.351,1.373a.067.067,0,0,1,0,.045Z" transform="translate(2282.919 3329.244)" fill="#fff"/>
      <path id="Path_1588" data-name="Path 1588" d="M7.855,157.019H5.63a2.062,2.062,0,0,1-1.9-1.623l-2.072-7.8a.687.687,0,0,1,.149-.639l2.554-2.606a.351.351,0,0,1,.354-.114.508.508,0,0,1,.337.383l1.5,5.611a3.69,3.69,0,0,0,3.477,2.829h.736a.815.815,0,1,0,0-1.631h-.736a2.062,2.062,0,0,1-1.9-1.619l-1.5-5.611a2.116,2.116,0,0,0-1.5-1.54,1.979,1.979,0,0,0-1.934.55L.639,145.815a2.3,2.3,0,0,0-.56,2.2l2.072,7.8A3.69,3.69,0,0,0,5.63,158.65H7.855a.815.815,0,1,0,0-1.631" transform="translate(2389 3295.423)" fill="#fff"/>
      <path id="Path_1589" data-name="Path 1589" d="M30.7,118.693c.051-.052.086-.051.113-.044s.106.038.144.181l1.184,4.43a3.085,3.085,0,0,0,2.911,2.361h.329a.815.815,0,1,0,0-1.631h-.329a1.457,1.457,0,0,1-1.335-1.151l-1.185-4.43a1.841,1.841,0,0,0-1.305-1.337,1.733,1.733,0,0,0-1.693.48l-2.016,2.058a1.992,1.992,0,0,0-.486,1.9l1.636,6.159a3.084,3.084,0,0,0,2.913,2.366h1.529a.815.815,0,0,0,0-1.631H31.58a1.457,1.457,0,0,1-1.336-1.154l-1.636-6.159a.371.371,0,0,1,.074-.34Z" transform="translate(2368.771 3314.613)" fill="#fff"/>
      <path id="Path_1590" data-name="Path 1590" d="M53.125,99.256l.834,3.119a2.483,2.483,0,0,0,2.348,1.895.815.815,0,1,0,0-1.631.856.856,0,0,1-.773-.685l-.87-3.255a1.566,1.566,0,0,0-1.113-1.136,1.487,1.487,0,0,0-1.453.41l-1.482,1.512a1.682,1.682,0,0,0-.411,1.6l1.2,4.525a2.483,2.483,0,0,0,2.349,1.9h.773a.815.815,0,1,0,0-1.631h-.773a.856.856,0,0,1-.773-.687l-1.2-4.525a.1.1,0,0,1,0-.043Z" transform="translate(2351.376 3329.243)" fill="#fff"/>
      <path id="Path_1591" data-name="Path 1591" d="M18.594,38.677h4.654a.815.815,0,1,0,0-1.631H19.41V15.5H62.151v21.55h-3.6a.815.815,0,1,0,0,1.631h4.418a.815.815,0,0,0,.815-.815V14.68a.815.815,0,0,0-.815-.815H18.594a.815.815,0,0,0-.815.815V37.861a.816.816,0,0,0,.815.815" transform="translate(2375.661 3392)" fill="#fff"/>
    </g>
  </g>
</svg>
