<svg xmlns="http://www.w3.org/2000/svg" width="17.571" height="12.175" viewBox="0 0 17.571 12.175">
  <g id="email" transform="translate(0)">
    <path id="Path_5028" data-name="Path 5028" d="M25.194,36.343H11.083a1.732,1.732,0,0,1-1.73-1.73V25.9a1.732,1.732,0,0,1,1.73-1.73H25.194a1.732,1.732,0,0,1,1.73,1.73v8.715a1.732,1.732,0,0,1-1.73,1.73ZM11.083,24.829A1.07,1.07,0,0,0,10.014,25.9v8.715a1.07,1.07,0,0,0,1.069,1.069H25.194a1.07,1.07,0,0,0,1.069-1.069V25.9a1.07,1.07,0,0,0-1.069-1.069Z" transform="translate(-9.353 -24.168)"/>
    <path id="Path_5029" data-name="Path 5029" d="M21.163,34.328a.331.331,0,0,1-.219-.083l-7.968-7.033.438-.5,7.749,6.841,7.749-6.84.438.5-7.968,7.033A.33.33,0,0,1,21.163,34.328Z" transform="translate(-12.377 -26.295)"/>
    <path id="Path_5030" data-name="Path 5030" d="M0,0H8.11V.661H0Z" transform="translate(0.419 11.137) rotate(-48.728)"/>
    <path id="Path_5031" data-name="Path 5031" d="M0,0H.661V8.11H0Z" transform="translate(11.319 5.468) rotate(-41.272)"/>
  </g>
</svg>
