<svg xmlns="http://www.w3.org/2000/svg" width="32.408" height="31.654" viewBox="0 0 32.408 31.654">
  <g id="Group_21283" data-name="Group 21283" transform="translate(0 0)">
    <path id="Path_830" data-name="Path 830" d="M733.8,1433.06c-.008-.105-.023-.209-.023-.314q0-2.1,0-4.206a2.123,2.123,0,0,0-.025-.226h-4.075v-14.207H733.4a13.075,13.075,0,0,1,1.572-6.283,10.662,10.662,0,0,1,2.712-3.172,16.192,16.192,0,0,1,4.33-2.493,11.316,11.316,0,0,1,7.8-.118,12.54,12.54,0,0,1,5.667,3.762,12.327,12.327,0,0,1,2.788,5.826c.15.781.24,1.574.368,2.437h3.441v14.26h-3.506v4.734Zm27.978-18.742h-3.068c-.388,0-.377-.017-.426-.4a24.187,24.187,0,0,0-.415-2.824,11.781,11.781,0,0,0-5.27-7.418,11.569,11.569,0,0,0-8.9-1.726,14.076,14.076,0,0,0-5.128,2.373,11.182,11.182,0,0,0-2.884,2.862,12.5,12.5,0,0,0-2,6.441c-.013.237-.071.471-.116.761h-3.6v13.648h4.084v4.719H758.3v-4.728h3.48Z" transform="translate(-729.677 -1401.406)"/>
    <path id="Path_831" data-name="Path 831" d="M761.78,1414.318v13.708H758.3v4.728H734.054v-4.719H729.97v-13.648h3.6c.045-.29.1-.524.116-.761a12.5,12.5,0,0,1,2-6.441,11.183,11.183,0,0,1,2.884-2.862,14.081,14.081,0,0,1,5.128-2.373,11.57,11.57,0,0,1,8.9,1.726,11.782,11.782,0,0,1,5.27,7.418,24.185,24.185,0,0,1,.415,2.824c.049.384.038.4.426.4h3.068Zm-30.116,11.764h.327q5.01.006,10.019.013,8.968,0,17.936-.013a.271.271,0,0,1,.058,0c.242.038.311-.063.311-.306q-.012-4.865,0-9.729c0-.256-.064-.327-.324-.327q-14.007.011-28.015.006c-.1,0-.207.009-.312.014Zm15.128-12.337.082.028c.076-.085.156-.166.228-.254q.909-1.1,1.815-2.211,2.06-2.5,4.121-5a.242.242,0,0,0-.013-.39,8.4,8.4,0,0,0-3.924-2.39,8.259,8.259,0,0,0-2.309-.284Zm-1.423.047v-10.5a8.248,8.248,0,0,0-6.374,2.878Zm1.9,17.343a32.615,32.615,0,0,1,9.455,1.245v-4.254h-9.455Zm-11.547,1.246a32.583,32.583,0,0,1,9.452-1.248v-3h-9.452Zm20.752-18.32c-.022-.315-.031-.6-.062-.875a13.691,13.691,0,0,0-.643-3.456,5.619,5.619,0,0,0-1.394-2.11l-5.639,6.441Zm-13.068,0-5.642-6.447a5.33,5.33,0,0,0-1.541,2.58c-.228.94-.336,1.911-.48,2.87-.049.322-.049.652-.073,1Z" transform="translate(-729.677 -1401.406)" fill="#fff"/>
    <g id="Group_17570" data-name="Group 17570" transform="translate(1.987 1.835)">
      <path id="Path_832" data-name="Path 832" d="M746.792,1413.745v-10.5a8.263,8.263,0,0,1,2.309.284,8.406,8.406,0,0,1,3.924,2.39.242.242,0,0,1,.013.39q-2.064,2.5-4.121,5-.909,1.1-1.815,2.211c-.072.088-.152.169-.228.254Z" transform="translate(-731.664 -1403.241)" fill="#00642e"/>
      <path id="Path_833" data-name="Path 833" d="M745.369,1413.792,739,1406.166a8.247,8.247,0,0,1,6.374-2.878Z" transform="translate(-731.664 -1403.241)" fill="#00642e"/>
      <path id="Path_834" data-name="Path 834" d="M747.266,1431.135v-3.009h9.455v4.254A32.606,32.606,0,0,0,747.266,1431.135Z" transform="translate(-731.664 -1403.241)" fill="#00642e"/>
      <path id="Path_835" data-name="Path 835" d="M735.719,1432.381v-4.246h9.452v3A32.583,32.583,0,0,0,735.719,1432.381Z" transform="translate(-731.664 -1403.241)" fill="#00642e"/>
      <path id="Path_836" data-name="Path 836" d="M756.471,1414.061h-7.738l5.639-6.441a5.617,5.617,0,0,1,1.394,2.11,13.689,13.689,0,0,1,.643,3.456C756.44,1413.465,756.449,1413.746,756.471,1414.061Z" transform="translate(-731.664 -1403.241)" fill="#00642e"/>
      <path id="Path_837" data-name="Path 837" d="M743.4,1414.064h-7.736c.024-.345.024-.675.073-1,.144-.959.252-1.93.48-2.87a5.331,5.331,0,0,1,1.541-2.58Z" transform="translate(-731.664 -1403.241)" fill="#00642e"/>
      <path id="Path_838" data-name="Path 838" d="M760.316,1416.047c0-.256-.065-.327-.325-.327q-14.007.011-28.015.006c-.1,0-.207.009-.312.014v10.342c.118,0,.222,0,.327,0q5.01.006,10.019.013,8.969,0,17.936-.013a.264.264,0,0,1,.058,0c.242.038.311-.063.311-.306Q760.3,1420.911,760.316,1416.047Z" transform="translate(-731.664 -1403.241)" fill="#00642e"/>
      <g id="Group_17569" data-name="Group 17569" transform="translate(2.051 13.336)">
        <path id="Path_839" data-name="Path 839" d="M745.051,1418.721a1.434,1.434,0,0,1,2.3.007.223.223,0,0,0,.074-.035,1.472,1.472,0,0,1,2.274.142.8.8,0,0,1,.116.478c-.008,1.083-.032,2.165-.05,3.248,0,.161,0,.321,0,.482a.545.545,0,0,1-.461.579.588.588,0,0,1-.618-.558c0-.732.032-1.464.021-2.2a1.378,1.378,0,0,0-.171-.642.7.7,0,0,0-.8-.246.61.61,0,0,0-.363.633c0,.772,0,1.545,0,2.317a.589.589,0,0,1-.506.632.674.674,0,0,1-.7-.6c-.006-.692.005-1.384.029-2.075a.874.874,0,0,0-.9-.933c-.359,0-.588.261-.591.688-.006.853,0,1.705,0,2.557a.622.622,0,0,1-.05.318c-.107.161-.231.376-.47.28s-.493-.173-.5-.518c-.011-1.464-.039-2.928-.045-4.392a1,1,0,0,1,.156-.5c.215-.346.593-.337.971.008A3.626,3.626,0,0,1,745.051,1418.721Z" transform="translate(-733.715 -1416.577)" fill="#fff"/>
        <path id="Path_840" data-name="Path 840" d="M735.085,1420.816c.668-.314,1.339-.622,2-.951.062-.03.083-.188.084-.287.011-.792.011-1.584.019-2.376a.565.565,0,0,1,.445-.6.493.493,0,0,1,.677.418,1.2,1.2,0,0,1,.005.18q0,3.457,0,6.916a.521.521,0,0,1-.278.55.565.565,0,0,1-.665-.126.6.6,0,0,1-.15-.367c-.036-.961-.056-1.923-.081-2.885,0-.069-.01-.139-.018-.241-.1.039-.175.067-.251.105-.536.27-1.067.551-1.609.809a.341.341,0,0,0-.227.363c.009.772.005,1.544,0,2.316a.548.548,0,0,1-.6.594.59.59,0,0,1-.641-.593q-.048-3.126-.089-6.253a.676.676,0,0,1,.522-.768.59.59,0,0,1,.74.562c0,.861,0,1.723,0,2.584Z" transform="translate(-733.715 -1416.577)" fill="#fff"/>
        <path id="Path_841" data-name="Path 841" d="M753.226,1421.4c.365.038.669.069.974.1.533.058.629.217.432.709a2.081,2.081,0,0,1-3.3.87,2.618,2.618,0,0,1-1.121-1.6,8.577,8.577,0,0,1-.036-1.47,2.768,2.768,0,0,1,1.338-2.279,1.5,1.5,0,0,1,1.68.037,2,2,0,0,1,1.243,1.854,1.176,1.176,0,0,1-.24.59c-.228.313-.5.592-.753.888C753.38,1421.177,753.324,1421.267,753.226,1421.4Zm-1.209-.769a1.378,1.378,0,0,0,1.16-.974.5.5,0,0,0-.049-.312.742.742,0,0,0-1.037-.28,2.1,2.1,0,0,0-.623.621A.62.62,0,0,0,752.017,1420.633Z" transform="translate(-733.715 -1416.577)" fill="#fff"/>
        <path id="Path_842" data-name="Path 842" d="M740.977,1418.074a2.467,2.467,0,0,1,2.263,1.636,3.152,3.152,0,0,1-1,3.6,2.286,2.286,0,0,1-3.127-.543,3.059,3.059,0,0,1,.261-4.053A2.2,2.2,0,0,1,740.977,1418.074Zm1.259,2.9a1.807,1.807,0,0,0-.525-1.38,1.035,1.035,0,0,0-1.444-.01,1.832,1.832,0,0,0,0,2.59,1.032,1.032,0,0,0,1.443-.011A1.677,1.677,0,0,0,742.236,1420.972Z" transform="translate(-733.715 -1416.577)" fill="#fff"/>
        <path id="Path_843" data-name="Path 843" d="M757.74,1419.535l-.226-.24c-.281-.3-.619-.346-.842-.122a.735.735,0,0,0,.062.931c.46.462.926.917,1.374,1.39a.62.62,0,0,1,.156.389,3.433,3.433,0,0,1-.452,1.693,1.279,1.279,0,0,1-1.547.6,2.36,2.36,0,0,1-1.454-1.259.744.744,0,0,1,.157-.856c.207-.18.458-.181.772.034a6,6,0,0,1,.525.446c.352.3.621.224.745-.224.144-.521.121-.626-.311-.931a4.353,4.353,0,0,0-.733-.4,1.147,1.147,0,0,1-.79-1.147c.011-.371,0-.742,0-1.113a1.053,1.053,0,0,1,.587-1.007,1.645,1.645,0,0,1,2.121.316,2.552,2.552,0,0,1,.346.941c.022.112-.18.272-.289.4A1.309,1.309,0,0,1,757.74,1419.535Z" transform="translate(-733.715 -1416.577)" fill="#fff"/>
      </g>
    </g>
  </g>
</svg>
