<svg xmlns="http://www.w3.org/2000/svg" width="15" height="14.333" viewBox="0 0 15 14.333">
  <path id="LinkedIn" d="M1102.435,3925.094v5.546h-3.215v-5.174c0-1.3-.465-2.186-1.629-2.186a1.759,1.759,0,0,0-1.649,1.176,2.2,2.2,0,0,0-.107.784v5.4h-3.217s.043-8.763,0-9.672h3.216v1.372c-.007.01-.015.021-.021.031h.021v-.031a3.193,3.193,0,0,1,2.9-1.6C1100.848,3920.741,1102.435,3922.124,1102.435,3925.094Zm-13.181-8.787a1.676,1.676,0,1,0-.042,3.343h.022a1.677,1.677,0,1,0,.021-3.343Zm-1.628,14.333h3.215v-9.672h-3.215Z" transform="translate(-1087.435 -3916.306)" fill="#fff"/>
</svg>
