<svg id="phone" xmlns="http://www.w3.org/2000/svg" width="17.054" height="16.324" viewBox="0 0 17.054 16.324">
  <path id="Path_5032" data-name="Path 5032" d="M16.305,13.9h-.034V11.341c0-1.451-1.048-2.222-2.062-2.967a5.245,5.245,0,0,1-1.721-1.71,1.232,1.232,0,0,0,.473.094h2.861A1.231,1.231,0,0,0,17.036,5.32l-.38-2.229a3.388,3.388,0,0,0-.478-1.247.253.253,0,1,0-.428.271,2.883,2.883,0,0,1,.407,1.061l.2,1.148H12.186l-.018-.438a.969.969,0,0,0-.817-.916,18.4,18.4,0,0,0-5.649,0,.969.969,0,0,0-.817.916l-.018.438H.7L.9,3.176A2.916,2.916,0,0,1,3.45.778,47.6,47.6,0,0,1,13.6.778a2.9,2.9,0,0,1,1.531.641.253.253,0,0,0,.321-.392,3.407,3.407,0,0,0-1.8-.753A48.1,48.1,0,0,0,3.4.274a3.41,3.41,0,0,0-3,2.816L.017,5.32A1.231,1.231,0,0,0,1.231,6.758H4.092a1.232,1.232,0,0,0,.473-.094,5.245,5.245,0,0,1-1.721,1.71C1.83,9.119.782,9.89.782,11.341V13.9H.748A.749.749,0,0,0,0,14.652v.923a.749.749,0,0,0,.748.749H16.305a.749.749,0,0,0,.749-.749v-.923A.749.749,0,0,0,16.305,13.9Zm.133-9.074.1.575a.724.724,0,0,1-.714.846h-.229V5.84a.253.253,0,1,0-.507,0v.411h-.5V5.84a.253.253,0,0,0-.507,0v.411h-.5V5.84a.253.253,0,1,0-.507,0v.411h-.113a.723.723,0,0,1-.724-.694l-.03-.727ZM9.858,3.308V4.937a.738.738,0,0,1-.738.738H7.934A.739.739,0,0,1,7.2,4.937V3.308A17.9,17.9,0,0,1,9.858,3.308ZM3.547,6.251V5.84a.253.253,0,1,0-.507,0v.411H2.323V5.84a.253.253,0,1,0-.507,0v.411H1.231A.725.725,0,0,1,.517,5.4l.1-.575H4.846l-.03.727a.723.723,0,0,1-.724.694Zm13,9.325a.242.242,0,0,1-.242.242H.748a.242.242,0,0,1-.242-.242v-.923a.242.242,0,0,1,.242-.242H3.52a.253.253,0,0,0,0-.507H1.288V11.341c0-1.195.9-1.858,1.855-2.559,1.018-.749,2.171-1.6,2.178-3.2a.025.025,0,0,0,0,0l.07-1.671A.462.462,0,0,1,5.78,3.47q.454-.07.909-.117V4.937A1.246,1.246,0,0,0,7.934,6.181H9.12a1.246,1.246,0,0,0,1.244-1.244V3.354q.456.047.909.117a.461.461,0,0,1,.388.436l.07,1.671h0c.006,1.6,1.159,2.454,2.178,3.2.954.7,1.856,1.365,1.856,2.559V13.9H4.533a.253.253,0,0,0,0,.507H16.305a.242.242,0,0,1,.242.242Zm0,0" transform="translate(0)"/>
  <path id="Path_5033" data-name="Path 5033" d="M152.205,200.621a3.576,3.576,0,1,0-3.576-3.576A3.58,3.58,0,0,0,152.205,200.621Zm0-6.646a3.07,3.07,0,1,1-3.07,3.07A3.073,3.073,0,0,1,152.205,193.975Zm0,0" transform="translate(-143.678 -187.024)"/>
  <path id="Path_5034" data-name="Path 5034" d="M206.963,253.489a1.69,1.69,0,1,0-1.69-1.69A1.691,1.691,0,0,0,206.963,253.489Zm0-2.873a1.183,1.183,0,1,1-1.183,1.183A1.184,1.184,0,0,1,206.963,250.616Zm0,0" transform="translate(-198.436 -241.778)"/>
</svg>
