<svg xmlns="http://www.w3.org/2000/svg" xmlns:xlink="http://www.w3.org/1999/xlink" width="170" height="50" viewBox="0 0 170 50">
  <defs>
    <clipPath id="clip-path">
      <path id="Path_7660" data-name="Path 7660" d="M10.556,7.557a2.522,2.522,0,0,0-.583,1.769v27.85a2.52,2.52,0,0,0,.583,1.769l.092.091,15.6-15.6v-.368l-15.6-15.6Z" transform="translate(-9.973 -7.466)" fill="none"/>
    </clipPath>
    <linearGradient id="linear-gradient" x1="-0.112" y1="1.238" x2="-0.075" y2="1.238" gradientUnits="objectBoundingBox">
      <stop offset="0" stop-color="#00a0ff"/>
      <stop offset="0.007" stop-color="#00a1ff"/>
      <stop offset="0.26" stop-color="#00beff"/>
      <stop offset="0.512" stop-color="#00d2ff"/>
      <stop offset="0.76" stop-color="#00dfff"/>
      <stop offset="1" stop-color="#00e3ff"/>
    </linearGradient>
    <clipPath id="clip-path-2">
      <path id="Path_7661" data-name="Path 7661" d="M22.9,20.926v.368l5.2,5.2.118-.067,6.162-3.5c1.76-1,1.76-2.638,0-3.638l-6.162-3.5-.117-.067Z" transform="translate(-22.899 -15.724)" fill="none"/>
    </clipPath>
    <linearGradient id="linear-gradient-2" x1="-2.178" y1="2.838" x2="-2.083" y2="2.838" gradientUnits="objectBoundingBox">
      <stop offset="0" stop-color="#ffe000"/>
      <stop offset="0.409" stop-color="#ffbd00"/>
      <stop offset="0.775" stop-color="orange"/>
      <stop offset="1" stop-color="#ff9c00"/>
    </linearGradient>
    <clipPath id="clip-path-3">
      <path id="Path_7662" data-name="Path 7662" d="M10.436,35.7a2.047,2.047,0,0,0,2.617.077l18.4-10.452L26.13,20Z" transform="translate(-10.436 -20.001)" fill="none"/>
    </clipPath>
    <linearGradient id="linear-gradient-3" x1="-0.394" y1="1.145" x2="-0.347" y2="1.145" gradientUnits="objectBoundingBox">
      <stop offset="0" stop-color="#ff3a44"/>
      <stop offset="1" stop-color="#c31162"/>
    </linearGradient>
    <clipPath id="clip-path-4">
      <path id="Path_7663" data-name="Path 7663" d="M10.436,7.641,26.13,23.335l5.318-5.319L13.053,7.564a2.892,2.892,0,0,0-1.412-.424,1.608,1.608,0,0,0-1.205.5" transform="translate(-10.436 -7.14)" fill="none"/>
    </clipPath>
    <linearGradient id="linear-gradient-4" x1="-0.399" y1="1.77" x2="-0.351" y2="1.77" gradientUnits="objectBoundingBox">
      <stop offset="0" stop-color="#32a071"/>
      <stop offset="0.068" stop-color="#2da771"/>
      <stop offset="0.476" stop-color="#15cf74"/>
      <stop offset="0.801" stop-color="#06e775"/>
      <stop offset="1" stop-color="#00f076"/>
    </linearGradient>
  </defs>
  <g id="Group_14135" data-name="Group 14135" transform="translate(0 -0.185)">
    <rect id="Rectangle_4602" data-name="Rectangle 4602" width="170" height="50" rx="5" transform="translate(0 0.185)"/>
    <g id="Group_14134" data-name="Group 14134" transform="translate(12.593 8.052)">
      <g id="Group_14133" data-name="Group 14133" transform="translate(39.124 0)">
        <path id="Path_7647" data-name="Path 7647" d="M48.991,11.119a3.411,3.411,0,0,1-.938,2.522,3.664,3.664,0,0,1-2.775,1.118,3.892,3.892,0,0,1-3.925-3.947,3.892,3.892,0,0,1,3.925-3.948,3.885,3.885,0,0,1,1.55.317,3.124,3.124,0,0,1,1.182.844l-.665.665a2.552,2.552,0,0,0-2.068-.9,2.92,2.92,0,0,0-2.934,3.018,2.971,2.971,0,0,0,5.045,2.173,2.369,2.369,0,0,0,.632-1.53H45.277v-.908h3.661a3.239,3.239,0,0,1,.053.57" transform="translate(-40.962 -6.865)" fill="#fff"/>
        <path id="Path_7648" data-name="Path 7648" d="M48.991,11.119a3.411,3.411,0,0,1-.938,2.522,3.664,3.664,0,0,1-2.775,1.118,3.892,3.892,0,0,1-3.925-3.947,3.892,3.892,0,0,1,3.925-3.948,3.885,3.885,0,0,1,1.55.317,3.124,3.124,0,0,1,1.182.844l-.665.665a2.552,2.552,0,0,0-2.068-.9,2.92,2.92,0,0,0-2.934,3.018,2.971,2.971,0,0,0,5.045,2.173,2.369,2.369,0,0,0,.632-1.53H45.277v-.908h3.661A3.239,3.239,0,0,1,48.991,11.119Z" transform="translate(-40.962 -6.865)" fill="none" stroke="#fff" stroke-miterlimit="10" stroke-width="0.2"/>
        <path id="Path_7649" data-name="Path 7649" d="M52.936,7.928H49.5v2.4h3.1v.908H49.5v2.4h3.44v.929H48.525V7h4.411Z" transform="translate(-39.102 -6.83)" fill="#fff"/>
        <path id="Path_7650" data-name="Path 7650" d="M52.936,7.928H49.5v2.4h3.1v.908H49.5v2.4h3.44v.929H48.525V7h4.411Z" transform="translate(-39.102 -6.83)" fill="none" stroke="#fff" stroke-miterlimit="10" stroke-width="0.2"/>
        <path id="Path_7651" data-name="Path 7651" d="M55.913,14.556h-.971V7.928H52.832V7h5.192v.928H55.913Z" transform="translate(-37.985 -6.83)" fill="#fff"/>
        <path id="Path_7652" data-name="Path 7652" d="M55.913,14.556h-.971V7.928H52.832V7h5.192v.928H55.913Z" transform="translate(-37.985 -6.83)" fill="none" stroke="#fff" stroke-miterlimit="10" stroke-width="0.2"/>
        <rect id="Rectangle_4587" data-name="Rectangle 4587" width="0.971" height="7.556" transform="translate(23.795 0.17)" fill="#fff"/>
        <rect id="Rectangle_4588" data-name="Rectangle 4588" width="0.971" height="7.556" transform="translate(23.795 0.17)" fill="none" stroke="#fff" stroke-miterlimit="10" stroke-width="0.2"/>
        <path id="Path_7653" data-name="Path 7653" d="M64.763,14.556h-.972V7.928H61.681V7h5.192v.928H64.763Z" transform="translate(-35.691 -6.83)" fill="#fff"/>
        <path id="Path_7654" data-name="Path 7654" d="M64.763,14.556h-.972V7.928H61.681V7h5.192v.928H64.763Z" transform="translate(-35.691 -6.83)" fill="none" stroke="#fff" stroke-miterlimit="10" stroke-width="0.2"/>
        <path id="Path_7655" data-name="Path 7655" d="M74.979,13.613a3.92,3.92,0,0,1-5.539,0,3.861,3.861,0,0,1-1.113-2.8,3.864,3.864,0,0,1,1.113-2.8,3.908,3.908,0,0,1,5.534.005,3.863,3.863,0,0,1,1.118,2.8,3.866,3.866,0,0,1-1.113,2.8m-4.823-.632a2.906,2.906,0,0,0,4.105,0,2.959,2.959,0,0,0,.84-2.168,2.957,2.957,0,0,0-.84-2.168,2.9,2.9,0,0,0-4.105,0,2.961,2.961,0,0,0-.839,2.168,2.963,2.963,0,0,0,.839,2.168" transform="translate(-33.968 -6.865)" fill="#fff"/>
        <path id="Path_7656" data-name="Path 7656" d="M74.979,13.613a3.92,3.92,0,0,1-5.539,0,3.861,3.861,0,0,1-1.113-2.8,3.864,3.864,0,0,1,1.113-2.8,3.908,3.908,0,0,1,5.534.005,3.863,3.863,0,0,1,1.118,2.8A3.866,3.866,0,0,1,74.979,13.613Zm-4.823-.632a2.906,2.906,0,0,0,4.105,0,2.959,2.959,0,0,0,.84-2.168,2.957,2.957,0,0,0-.84-2.168,2.9,2.9,0,0,0-4.105,0,2.961,2.961,0,0,0-.839,2.168A2.963,2.963,0,0,0,70.156,12.981Z" transform="translate(-33.968 -6.865)" fill="none" stroke="#fff" stroke-miterlimit="10" stroke-width="0.2"/>
        <path id="Path_7657" data-name="Path 7657" d="M75.575,14.556V7h1.182l3.672,5.878h.042l-.042-1.457V7H81.4v7.556H80.387L76.545,8.393H76.5l.042,1.457v4.706Z" transform="translate(-32.089 -6.83)" fill="#fff"/>
        <path id="Path_7658" data-name="Path 7658" d="M75.575,14.556V7h1.182l3.672,5.878h.042l-.042-1.457V7H81.4v7.556H80.387L76.545,8.393H76.5l.042,1.457v4.706Z" transform="translate(-32.089 -6.83)" fill="none" stroke="#fff" stroke-miterlimit="10" stroke-width="0.2"/>
        <path id="Path_7659" data-name="Path 7659" d="M75.16,22.972a5.356,5.356,0,1,0,5.376,5.356,5.279,5.279,0,0,0-5.376-5.356m0,8.6a3.1,3.1,0,0,1-3.023-3.246,3.031,3.031,0,1,1,6.046,0,3.1,3.1,0,0,1-3.022,3.246m-11.729-8.6a5.356,5.356,0,1,0,5.377,5.356,5.279,5.279,0,0,0-5.377-5.356m0,8.6a3.1,3.1,0,0,1-3.022-3.246,3.031,3.031,0,1,1,6.046,0,3.1,3.1,0,0,1-3.023,3.246m-13.95-6.959v2.272h5.436a4.749,4.749,0,0,1-1.237,2.861,5.571,5.571,0,0,1-4.2,1.663,6.046,6.046,0,0,1,0-12.091,5.792,5.792,0,0,1,4.1,1.623l1.6-1.6a7.927,7.927,0,0,0-5.7-2.293,8.319,8.319,0,1,0,0,16.636,7.6,7.6,0,0,0,5.8-2.333,7.508,7.508,0,0,0,1.968-5.315,7.35,7.35,0,0,0-.122-1.419Zm57.055,1.764a4.979,4.979,0,0,0-4.585-3.408A5.089,5.089,0,0,0,96.9,28.327a5.241,5.241,0,0,0,5.314,5.356,5.329,5.329,0,0,0,4.464-2.374l-1.826-1.218a3.061,3.061,0,0,1-2.638,1.482,2.725,2.725,0,0,1-2.6-1.623l7.161-2.962Zm-7.3,1.786a2.938,2.938,0,0,1,2.8-3.124,2.074,2.074,0,0,1,1.988,1.136ZM93.41,33.358h2.354V17.615H93.41Zm-3.855-9.19h-.081a3.712,3.712,0,0,0-2.819-1.2,5.36,5.36,0,0,0,0,10.711,3.649,3.649,0,0,0,2.819-1.218h.081v.772c0,2.049-1.094,3.144-2.86,3.144A2.964,2.964,0,0,1,84,34.474l-2.049.853A5.1,5.1,0,0,0,86.7,38.491c2.759,0,5.092-1.623,5.092-5.579V23.3H89.555Zm-2.7,7.406a3.074,3.074,0,0,1-2.982-3.226,3.1,3.1,0,0,1,2.982-3.267,3.018,3.018,0,0,1,2.86,3.267,2.993,2.993,0,0,1-2.86,3.226m30.7-13.958h-5.63V33.358h2.349V27.394h3.282a4.9,4.9,0,1,0,0-9.778m.06,7.587h-3.342v-5.4h3.342a2.7,2.7,0,1,1,0,5.4m14.522-2.26a4.413,4.413,0,0,0-4.193,2.41l2.087.87a2.228,2.228,0,0,1,2.147-1.155,2.262,2.262,0,0,1,2.471,2.026v.161a5.2,5.2,0,0,0-2.451-.607c-2.248,0-4.537,1.235-4.537,3.544a3.638,3.638,0,0,0,3.909,3.464,3.315,3.315,0,0,0,3-1.54h.081v1.215h2.268V27.3c0-2.8-2.085-4.355-4.779-4.355m-.283,8.627c-.771,0-1.844-.384-1.844-1.336,0-1.215,1.336-1.681,2.491-1.681a4.192,4.192,0,0,1,2.147.526,2.848,2.848,0,0,1-2.794,2.491m13.325-8.283-2.694,6.825h-.081l-2.8-6.825h-2.531l4.192,9.539-2.39,5.307h2.451L147.8,23.287ZM124.02,33.358h2.35V17.616h-2.35Z" transform="translate(-41.042 -4.225)" fill="#fff"/>
      </g>
      <g id="Group_14132" data-name="Group 14132" transform="translate(0 0.346)">
        <g id="Group_14105" data-name="Group 14105" transform="translate(0 0.411)">
          <g id="Group_14104" data-name="Group 14104" clip-path="url(#clip-path)">
            <rect id="Rectangle_4590" data-name="Rectangle 4590" width="33.833" height="33.833" transform="translate(-15.785 15.785) rotate(-45)" fill="url(#linear-gradient)"/>
          </g>
        </g>
        <g id="Group_14107" data-name="Group 14107" transform="translate(16.277 10.809)">
          <g id="Group_14106" data-name="Group 14106" clip-path="url(#clip-path-2)">
            <rect id="Rectangle_4591" data-name="Rectangle 4591" width="13.24" height="10.773" transform="translate(0 0)" fill="url(#linear-gradient-2)"/>
          </g>
        </g>
        <g id="Group_14109" data-name="Group 14109" transform="translate(0.583 16.195)">
          <g id="Group_14108" data-name="Group 14108" clip-path="url(#clip-path-3)">
            <rect id="Rectangle_4592" data-name="Rectangle 4592" width="26.443" height="26.443" transform="translate(-8.192 8.192) rotate(-45)" fill="url(#linear-gradient-3)"/>
          </g>
        </g>
        <g id="Group_14111" data-name="Group 14111" transform="translate(0.583 0)">
          <g id="Group_14110" data-name="Group 14110" clip-path="url(#clip-path-4)">
            <rect id="Rectangle_4593" data-name="Rectangle 4593" width="26.31" height="26.31" transform="translate(-8.098 8.098) rotate(-45)" fill="url(#linear-gradient-4)"/>
          </g>
        </g>
      </g>
    </g>
  </g>
</svg>
