<svg xmlns="http://www.w3.org/2000/svg" width="46" height="46" viewBox="0 0 46 46">
  <g id="Group_15979" data-name="Group 15979" transform="translate(-2602 -12448)">
    <g id="Animation_-_Social_Icons" data-name="Animation - Social Icons" transform="translate(2602 12448)">
      <circle id="Ellipse_17" data-name="Ellipse 17" cx="23" cy="23" r="23" fill="#191818"/>
      <circle id="Ellipse_13" data-name="Ellipse 13" cx="23" cy="23" r="23" fill="#565440"/>
    </g>
    <path id="Path_2113" data-name="Path 2113" d="M1246.023,105.067a8.836,8.836,0,0,1-2.164.617c.348-.058.859-.688,1.064-.943a3.975,3.975,0,0,0,.718-1.309c.019-.037.033-.084,0-.112a.124.124,0,0,0-.115.009,11.046,11.046,0,0,1-2.565.982.172.172,0,0,1-.177-.047,2.089,2.089,0,0,0-.224-.229,4.534,4.534,0,0,0-1.243-.761,4.325,4.325,0,0,0-1.906-.307,4.551,4.551,0,0,0-1.808.511,4.668,4.668,0,0,0-1.459,1.191,4.477,4.477,0,0,0-.87,1.745,4.711,4.711,0,0,0-.046,1.842c.013.1,0,.117-.089.1a13.7,13.7,0,0,1-8.814-4.486c-.1-.117-.159-.117-.243.009a4.469,4.469,0,0,0,.762,5.281c.173.164.351.327.542.477a4.494,4.494,0,0,1-1.7-.477c-.1-.065-.155-.028-.164.089a2.673,2.673,0,0,0,.028.5,4.518,4.518,0,0,0,2.786,3.6,2.62,2.62,0,0,0,.565.173,5.037,5.037,0,0,1-1.668.051c-.121-.023-.168.038-.121.154a4.692,4.692,0,0,0,3.5,2.935c.159.028.318.028.477.065-.01.014-.02.014-.029.028a5.548,5.548,0,0,1-2.393,1.269,8.57,8.57,0,0,1-3.636.465c-.2-.029-.236-.026-.289,0s-.007.08.056.13c.248.164.5.309.758.449a11.984,11.984,0,0,0,2.429.972,12.944,12.944,0,0,0,12.566-2.938c2.575-2.558,3.478-6.087,3.478-9.619,0-.138.163-.214.26-.288a8.5,8.5,0,0,0,1.71-1.779.543.543,0,0,0,.114-.34v-.018C1246.111,105.011,1246.109,105.028,1246.023,105.067Z" transform="translate(1389.282 12359.043)" fill="#fff"/>
  </g>
</svg>
