<svg xmlns="http://www.w3.org/2000/svg" width="15" height="10.556" viewBox="0 0 15 10.556">
  <path id="Path_29" data-name="Path 29" d="M1180.9,3919.73c-.542-.643-1.541-.906-3.451-.906h-6.93c-1.953,0-2.969.28-3.509.965-.526.668-.526,1.653-.526,3.015v2.6c0,2.639.624,3.979,4.035,3.979h6.93c1.656,0,2.573-.231,3.166-.8.609-.583.869-1.533.869-3.18v-2.6C1181.487,3921.368,1181.447,3920.376,1180.9,3919.73Zm-4.786,4.731-3.147,1.645a.484.484,0,0,1-.708-.429V3922.4a.484.484,0,0,1,.707-.43l3.147,1.634a.484.484,0,0,1,0,.859Z" transform="translate(-1166.487 -3918.824)" fill="#fff"/>
</svg>
